<svg xmlns="http://www.w3.org/2000/svg" xmlns:xlink="http://www.w3.org/1999/xlink" width="160" zoomAndPan="magnify" viewBox="0 0 120 119.999999" height="160" preserveAspectRatio="xMidYMid meet" version="1.2"><defs><clipPath id="5c7ebd6f6a"><path d="M 54.707031 37.765625 L 62.671875 37.765625 L 62.671875 41.699219 L 54.707031 41.699219 Z M 54.707031 37.765625 "/></clipPath></defs><g id="853c491375"><path style=" stroke:none;fill-rule:nonzero;fill:#005a48;fill-opacity:1;" d="M 33.566406 97.261719 C 33.269531 96.527344 33.554688 95.886719 33.699219 95.246094 C 33.863281 94.519531 34.070312 93.804688 34.253906 93.082031 C 34.277344 92.992188 34.316406 92.867188 34.277344 92.800781 C 33.808594 92.046875 34.257812 91.425781 34.539062 90.773438 C 34.609375 90.601562 34.640625 90.394531 34.4375 90.238281 C 33.980469 90.1875 33.984375 90.835938 33.519531 90.847656 C 33.472656 90.503906 33.695312 90.257812 33.808594 89.984375 C 33.960938 89.625 34.125 89.277344 33.832031 88.902344 C 33.78125 88.835938 33.742188 88.710938 33.769531 88.636719 C 34.304688 87.070312 34.0625 85.414062 34.335938 83.804688 C 34.625 82.09375 35.164062 80.414062 35.171875 78.644531 C 35.175781 77.976562 35.324219 77.265625 35.722656 76.664062 C 35.761719 76.605469 35.824219 76.535156 35.816406 76.472656 C 35.695312 74.769531 37.050781 73.828125 37.808594 72.578125 C 38.167969 71.984375 38.539062 71.410156 39.167969 71.035156 C 39.554688 70.804688 39.503906 70.308594 39.582031 69.917969 C 39.765625 68.976562 39.90625 68.027344 40.074219 67.082031 C 40.226562 66.207031 40.175781 66.160156 39.292969 66.382812 C 39.183594 66.410156 39.070312 66.449219 38.960938 66.484375 C 38.882812 66.96875 39.113281 67.355469 39.265625 67.75 C 39.441406 68.207031 39.382812 68.519531 38.886719 68.730469 C 38.347656 68.960938 38.277344 69.519531 38.015625 69.96875 C 37.503906 70.851562 37.703125 72.105469 36.628906 72.679688 C 36.46875 72.765625 36.375 72.914062 36.402344 73.097656 C 36.5 73.75 36.15625 74.246094 35.855469 74.765625 C 34.960938 76.304688 34.066406 77.839844 33.1875 79.382812 C 32.871094 79.9375 32.4375 80.316406 31.800781 80.4375 C 31.214844 80.546875 30.765625 80.925781 30.28125 81.230469 C 28.644531 82.257812 26.804688 82.871094 25.148438 83.851562 C 24.910156 83.992188 24.640625 83.976562 24.375 83.984375 C 21.597656 84.078125 18.929688 83.492188 16.269531 82.773438 C 15.539062 82.578125 14.855469 82.453125 14.328125 81.824219 C 14.050781 81.5 13.601562 81.667969 13.273438 81.910156 C 13.007812 82.109375 12.769531 82.34375 12.46875 82.601562 C 12.195312 82.066406 11.902344 81.957031 11.34375 82.25 C 10.886719 82.484375 10.285156 82.476562 9.742188 82.5 C 9.316406 82.519531 9.167969 82.203125 9.21875 81.8125 C 9.308594 81.121094 9.8125 80.621094 10.089844 80.015625 C 10.230469 79.710938 11.226562 79.804688 11.367188 80.128906 C 11.644531 80.757812 12.097656 80.707031 12.554688 80.472656 C 14.335938 79.566406 16.195312 79.617188 18.101562 79.933594 C 19.5625 80.175781 21.066406 80.117188 22.523438 80.429688 C 22.632812 80.453125 22.789062 80.433594 22.867188 80.367188 C 24.300781 79.164062 26.164062 79.140625 27.8125 78.53125 C 28.292969 78.355469 28.804688 78.242188 28.945312 77.652344 C 29.113281 76.953125 29.300781 76.289062 29.953125 75.84375 C 30.238281 75.644531 29.988281 75.257812 30.140625 75 C 29.753906 74.777344 29.292969 75.023438 29.007812 74.605469 C 29.835938 74.101562 31.101562 75.085938 31.660156 73.855469 C 32.035156 73.03125 33.121094 72.472656 32.609375 71.289062 C 32.199219 71.003906 31.6875 70.960938 31.152344 71.015625 C 31.171875 70.917969 31.171875 70.84375 31.191406 70.835938 C 32.214844 70.515625 32.640625 69.644531 33.226562 68.847656 C 34.269531 67.421875 35.003906 65.832031 35.949219 64.359375 C 36.367188 63.710938 36.933594 63.171875 37.371094 62.558594 C 37.945312 61.746094 38.632812 61.253906 39.5625 61.023438 C 39.695312 60.988281 39.847656 60.894531 39.914062 60.78125 C 40.699219 59.496094 42.097656 58.839844 43.039062 57.730469 C 43.710938 56.941406 43.996094 55.910156 44.347656 54.941406 C 44.457031 54.640625 44.246094 54.4375 43.921875 54.417969 C 43.582031 54.398438 43.265625 54.316406 42.957031 54.167969 C 41.898438 53.652344 41.730469 53.28125 42.085938 52.167969 C 42.28125 51.546875 42.152344 51.355469 41.496094 51.445312 C 40.933594 51.523438 40.394531 51.441406 39.847656 51.355469 C 39.515625 51.304688 39.191406 51.21875 38.871094 51.40625 C 38.65625 51.527344 38.394531 51.515625 38.300781 51.296875 C 38.054688 50.738281 37.574219 50.765625 37.136719 50.828125 C 36.378906 50.933594 35.824219 50.640625 35.367188 50.09375 C 35.054688 49.714844 34.667969 49.550781 34.1875 49.496094 C 33.117188 49.382812 32.191406 48.871094 31.273438 48.363281 C 30.222656 47.78125 29.230469 47.09375 28.101562 46.660156 C 27.992188 46.617188 27.84375 46.585938 27.785156 46.5 C 26.984375 45.324219 25.59375 45.058594 24.496094 44.335938 C 22.984375 43.339844 21.601562 42.199219 20.371094 40.832031 C 19.175781 39.511719 18.539062 37.949219 17.769531 36.410156 C 17.390625 35.652344 16.964844 34.894531 16.546875 34.144531 C 16.394531 33.871094 16.226562 33.585938 16.277344 33.261719 C 16.464844 32.128906 15.871094 31.269531 15.261719 30.445312 C 14.785156 29.792969 14.296875 29.136719 13.597656 28.664062 C 13.160156 28.367188 13.246094 27.757812 13.070312 27.300781 C 12.996094 27.105469 13.292969 26.90625 13.445312 27.050781 C 13.847656 27.429688 14.488281 27.480469 14.722656 28.128906 C 15.019531 28.960938 15.609375 29.605469 16.445312 29.964844 C 17.058594 30.230469 17.539062 30.640625 17.929688 31.179688 C 18.988281 32.664062 20.125 34.082031 20.996094 35.707031 C 21.371094 36.402344 21.84375 37.085938 22.273438 37.773438 C 22.53125 38.183594 22.941406 38.480469 23.355469 38.5625 C 23.941406 38.675781 24.269531 39.042969 24.640625 39.410156 C 25.699219 40.453125 26.675781 41.59375 28.144531 42.117188 C 28.648438 42.296875 29.164062 42.527344 29.65625 42.675781 C 30.996094 43.070312 31.9375 43.992188 32.882812 44.882812 C 33.941406 45.875 34.980469 46.617188 36.53125 46.113281 C 36.953125 45.976562 37.425781 46.253906 37.84375 46.417969 C 40.0625 47.273438 42.3125 48.09375 44.207031 49.582031 C 44.863281 50.097656 45.691406 50.082031 46.367188 50.507812 C 46.695312 50.71875 46.816406 50.378906 46.832031 50.09375 C 46.867188 49.515625 46.820312 48.945312 46.726562 48.371094 C 46.664062 48 46.523438 47.609375 47.066406 47.335938 C 47.488281 47.121094 47.234375 46.707031 47 46.417969 C 46.726562 46.082031 46.296875 46.027344 45.917969 45.878906 C 44.597656 45.359375 44.1875 44.453125 44.722656 43.136719 C 44.949219 42.582031 44.628906 42.402344 44.242188 42.203125 C 43.792969 41.972656 43.320312 42.003906 42.796875 42.117188 C 42.742188 41.398438 42.1875 41.242188 41.679688 41.03125 C 40.109375 40.371094 38.5 39.777344 36.976562 39.019531 C 35.96875 38.519531 35.445312 37.503906 35.042969 36.472656 C 34.957031 36.25 34.9375 35.992188 34.726562 35.847656 C 33.933594 35.28125 33.519531 34.445312 33.144531 33.59375 C 32.605469 32.386719 32.261719 31.058594 31.546875 29.976562 C 30.445312 28.304688 30.472656 26.492188 30.414062 24.652344 C 30.359375 23.019531 30.378906 21.378906 30.214844 19.757812 C 30.117188 18.808594 30.226562 17.976562 30.609375 17.113281 C 31.234375 15.703125 32.335938 15.046875 33.792969 14.855469 C 34 14.828125 34.230469 14.894531 34.40625 14.726562 C 33.859375 14.035156 33.960938 13.558594 34.761719 13.199219 C 35.132812 13.035156 35.53125 12.882812 35.929688 12.84375 C 36.441406 12.796875 36.980469 12.851562 36.976562 13.59375 C 36.976562 14.136719 37.445312 14.375 37.761719 14.644531 C 38.964844 15.664062 38.957031 16.714844 37.675781 17.578125 C 36.96875 18.050781 36.21875 18.417969 35.40625 18.660156 C 35.070312 18.761719 34.882812 18.902344 34.8125 19.332031 C 34.527344 21 34.152344 22.65625 33.820312 24.316406 C 33.617188 25.347656 33.90625 26.21875 34.757812 26.863281 C 35.105469 27.125 35.257812 27.492188 35.390625 27.882812 C 36.039062 29.742188 36.679688 31.605469 37.347656 33.457031 C 37.652344 34.304688 38.359375 34.710938 39.257812 34.652344 C 39.65625 34.625 39.90625 34.941406 40.1875 35.144531 C 40.683594 35.5 41.15625 35.8125 41.742188 35.234375 C 42.019531 36.96875 43.617188 37.230469 44.628906 38.125 C 45.585938 38.96875 46.769531 39.582031 47.457031 40.71875 C 47.757812 41.21875 48.066406 41.695312 48.683594 41.863281 C 48.929688 41.929688 49.035156 42.175781 49.167969 42.378906 C 49.753906 43.285156 50.394531 44.160156 50.859375 45.144531 C 51.097656 45.652344 51.539062 45.800781 52.066406 45.582031 C 52.515625 45.394531 52.539062 45.023438 52.476562 44.613281 C 52.4375 44.367188 52.230469 44.273438 52.066406 44.136719 C 51.628906 43.785156 51.605469 43.378906 52.0625 43.070312 C 52.484375 42.785156 52.480469 42.46875 52.296875 42.085938 C 52.054688 41.578125 52.082031 41.148438 52.515625 40.726562 C 52.855469 40.386719 52.839844 39.886719 52.878906 39.433594 C 52.917969 39.003906 52.988281 38.570312 52.960938 38.140625 C 52.875 36.667969 53.3125 35.246094 53.554688 33.828125 C 53.820312 32.28125 53.949219 30.699219 54.316406 29.164062 C 54.484375 28.449219 54.914062 28.003906 55.558594 27.683594 C 57.347656 26.792969 59.171875 26.835938 61.007812 27.433594 C 62.023438 27.765625 62.390625 28.6875 62.613281 29.597656 C 63.003906 31.179688 63.289062 32.789062 63.609375 34.386719 C 63.6875 34.773438 63.785156 35.105469 64.191406 35.308594 C 64.523438 35.472656 64.671875 35.902344 64.496094 36.183594 C 64.03125 36.921875 64.3125 37.632812 64.464844 38.339844 C 64.691406 39.40625 64.722656 40.53125 65.382812 41.480469 C 65.546875 41.714844 65.554688 42.035156 65.433594 42.320312 C 65.074219 43.183594 65.167969 44.105469 65.089844 45.003906 C 65.027344 45.757812 65.691406 45.746094 66.109375 45.890625 C 66.527344 46.03125 66.644531 45.601562 66.757812 45.285156 C 67.058594 44.441406 67.527344 43.683594 67.972656 42.914062 C 68.144531 42.617188 68.359375 42.347656 68.761719 42.386719 C 69.171875 42.429688 69.386719 42.175781 69.539062 41.859375 C 70.042969 40.8125 70.847656 40.042969 71.761719 39.351562 C 72.953125 38.460938 74.085938 37.484375 75.371094 36.722656 C 75.769531 36.488281 75.972656 36.03125 76.398438 35.824219 C 76.800781 35.632812 77.105469 35.128906 77.671875 35.484375 C 77.746094 35.53125 77.9375 35.414062 78.0625 35.347656 C 78.53125 35.089844 79.003906 34.972656 79.558594 34.953125 C 80.242188 34.925781 80.808594 34.5 81.144531 33.851562 C 81.855469 32.476562 82.6875 31.183594 83.765625 30.074219 C 84.652344 29.160156 85.339844 28.046875 86.632812 27.53125 C 87.078125 27.351562 87.523438 26.851562 87.765625 26.285156 C 88.324219 24.984375 88.9375 23.703125 89.527344 22.414062 C 89.75 21.921875 90.101562 21.566406 90.554688 21.253906 C 91.238281 20.78125 91.75 20.058594 91.921875 19.285156 C 92.714844 15.730469 94.375 12.523438 95.804688 9.21875 C 96.332031 8.011719 96.957031 6.847656 97.390625 5.59375 C 97.574219 5.070312 97.972656 4.609375 98.316406 4.15625 C 98.605469 3.777344 98.902344 3.417969 99.503906 3.523438 C 100.144531 3.640625 100.378906 4.113281 100.535156 4.597656 C 101.023438 6.09375 100.9375 7.492188 99.863281 8.78125 C 98.761719 10.101562 98.363281 11.773438 97.832031 13.367188 C 97.113281 15.53125 96.417969 17.707031 95.730469 19.878906 C 95.460938 20.734375 94.914062 21.46875 94.644531 22.296875 C 93.824219 24.832031 91.765625 26.558594 90.523438 28.816406 C 90.328125 29.167969 90.058594 29.496094 89.757812 29.765625 C 89.269531 30.203125 88.796875 30.605469 88.804688 31.347656 C 88.804688 31.605469 88.574219 31.816406 88.363281 31.984375 C 86.988281 33.09375 85.894531 34.46875 84.710938 35.765625 C 83.722656 36.847656 82.710938 37.910156 81.40625 38.632812 C 81.300781 38.6875 81.191406 38.753906 81.109375 38.835938 C 78.847656 41.097656 75.84375 41.859375 72.960938 42.847656 C 72.164062 43.121094 72.078125 43.171875 72.386719 43.921875 C 72.953125 45.304688 72.457031 46.34375 71.015625 46.773438 C 70.386719 46.957031 70.351562 47.429688 70.527344 47.914062 C 70.71875 48.453125 70.6875 48.917969 70.441406 49.433594 C 70.101562 50.148438 70.597656 51.636719 71.269531 52.066406 C 71.367188 52.128906 71.542969 52.21875 71.589844 52.179688 C 72.125 51.753906 72.636719 52.371094 73.171875 52.195312 C 73.320312 52.144531 73.550781 52.253906 73.714844 52.34375 C 74.121094 52.574219 74.527344 52.75 75.011719 52.621094 C 75.207031 52.570312 75.378906 52.679688 75.550781 52.777344 C 75.925781 52.992188 76.3125 53.191406 76.695312 53.386719 C 77.886719 53.996094 77.886719 53.992188 79 53.707031 C 79.480469 53.894531 78.902344 54.835938 79.761719 54.765625 C 80.277344 54.722656 80.703125 54.421875 81.214844 54.300781 C 81.691406 54.972656 80.71875 55.0625 80.742188 55.574219 C 81.382812 56.113281 82.160156 56.03125 82.929688 55.898438 C 82.957031 56.230469 82.726562 56.285156 82.601562 56.414062 C 82.292969 56.730469 82.285156 57.03125 82.464844 57.449219 C 82.925781 58.53125 83.730469 58.980469 84.859375 59.089844 C 85.382812 59.144531 85.84375 59.695312 86.464844 59.195312 C 86.476562 59.957031 86.960938 60 87.433594 59.929688 C 87.9375 59.855469 88.167969 60.023438 88.175781 60.515625 C 88.179688 60.671875 88.210938 60.800781 88.339844 60.894531 C 89.515625 61.730469 90.714844 62.484375 92.257812 62.40625 C 93.121094 62.363281 93.925781 62.578125 94.589844 63.175781 C 94.917969 63.46875 95.28125 63.324219 95.617188 63.222656 C 97.382812 62.671875 99.125 62.050781 100.917969 61.589844 C 101.285156 61.492188 101.617188 61.425781 102.023438 61.472656 C 102.546875 61.539062 103.105469 61.441406 103.625 61.175781 C 104.058594 60.957031 104.558594 60.742188 104.867188 61.441406 C 104.988281 61.714844 105.339844 61.753906 105.621094 61.816406 C 106.085938 61.914062 106.351562 62.191406 106.363281 62.65625 C 106.378906 63.164062 106.210938 63.605469 105.707031 63.835938 C 105.601562 63.886719 105.476562 63.933594 105.363281 63.925781 C 103.445312 63.816406 101.792969 64.734375 100.058594 65.316406 C 98.792969 65.738281 97.546875 66.222656 96.269531 66.597656 C 94.59375 67.089844 92.933594 67.027344 91.269531 66.386719 C 89.683594 65.777344 88.171875 64.933594 86.4375 64.765625 C 86.28125 64.75 86.113281 64.648438 85.992188 64.542969 C 85.261719 63.894531 84.382812 63.496094 83.53125 63.050781 C 82.246094 62.382812 81.058594 61.597656 80.144531 60.449219 C 80.085938 60.378906 80.007812 60.289062 79.925781 60.273438 C 78.191406 59.960938 77.207031 58.464844 75.789062 57.660156 C 75.234375 57.34375 74.753906 56.59375 74.023438 57.160156 C 73.324219 57.703125 74.0625 58.28125 74.132812 58.847656 C 74.304688 60.261719 75.003906 61.0625 76.535156 61.121094 C 77.464844 61.152344 78.207031 61.667969 78.859375 62.402344 C 79.648438 63.292969 80.617188 64.015625 81.21875 65.078125 C 81.449219 65.488281 81.867188 65.628906 82.222656 65.628906 C 82.714844 67.046875 83.988281 67.140625 85.074219 67.480469 C 84.953125 67.808594 84.5625 67.679688 84.515625 67.980469 C 84.566406 68.441406 85.0625 68.039062 85.203125 68.359375 C 85.257812 68.589844 84.847656 68.5 84.910156 68.824219 C 86.070312 69.667969 87.664062 69.738281 88.871094 70.660156 C 88.476562 70.832031 88.476562 70.832031 87.164062 70.324219 C 86.566406 70.09375 85.949219 70.082031 85.292969 70.148438 C 85.109375 71.0625 85.300781 71.800781 86.054688 72.386719 C 87.511719 73.511719 88.953125 74.664062 90.183594 76.050781 C 90.308594 76.191406 90.492188 76.265625 90.484375 76.503906 C 90.445312 77.261719 90.910156 77.476562 91.550781 77.40625 C 92.6875 77.273438 93.84375 77.398438 94.976562 77.09375 C 95.253906 77.019531 95.636719 77.121094 95.9375 77.386719 C 96.742188 78.089844 97.011719 78.105469 97.898438 77.523438 C 98.292969 77.261719 98.75 77.207031 99.167969 77.0625 C 100.195312 76.703125 100.953125 75.875 101.996094 75.558594 C 102.25 75.484375 102.488281 75.402344 102.753906 75.382812 C 103.285156 75.347656 103.804688 75.242188 104.296875 75.039062 C 105.1875 74.675781 106.023438 74.738281 106.832031 75.277344 C 107.148438 75.484375 107.472656 75.691406 107.882812 75.710938 C 108.863281 75.753906 109.238281 76.074219 109.453125 77.046875 C 109.5 77.257812 109.519531 77.476562 109.519531 77.691406 C 109.515625 78.097656 109.339844 78.296875 108.886719 78.25 C 108.085938 78.164062 107.609375 77.644531 107.160156 77.066406 C 106.882812 76.71875 106.6875 76.230469 106.09375 76.40625 C 105.652344 76.535156 104.945312 77.539062 104.976562 78.011719 C 104.601562 78.074219 104.351562 78.324219 104.054688 78.558594 C 103.621094 78.910156 103.09375 79.226562 102.570312 79.433594 C 101.964844 79.671875 101.335938 79.882812 100.8125 80.246094 C 99.582031 81.09375 98.191406 81.527344 96.808594 82 C 96.308594 82.171875 95.808594 82.136719 95.316406 82.03125 C 93.046875 81.535156 90.773438 81.085938 88.539062 80.394531 C 87.210938 79.984375 86.371094 79.320312 85.679688 78.234375 C 84.863281 76.957031 83.601562 76.023438 82.871094 74.675781 C 82.734375 74.425781 82.574219 74.183594 82.441406 73.929688 C 82.097656 73.253906 81.898438 72.488281 81.125 72.105469 C 80.953125 72.023438 80.847656 71.78125 80.746094 71.59375 C 80.105469 70.414062 79.46875 69.238281 78.851562 68.050781 C 78.671875 67.710938 78.546875 67.34375 78.078125 67.347656 C 78.082031 67.011719 78.398438 66.6875 77.976562 66.464844 C 77.65625 66.292969 77.316406 66.28125 77.007812 66.445312 C 76.683594 66.617188 76.789062 66.945312 76.824219 67.222656 C 77.039062 69.035156 77.269531 70.84375 77.476562 72.652344 C 77.523438 73.054688 77.644531 73.386719 77.933594 73.675781 C 79.09375 74.828125 79.640625 76.324219 80.210938 77.804688 C 80.226562 77.851562 80.246094 77.90625 80.234375 77.945312 C 79.890625 79.191406 80.738281 80.214844 80.871094 81.375 C 81.007812 82.5625 81.3125 83.734375 81.46875 84.921875 C 81.808594 87.511719 82.316406 90.109375 82.078125 92.726562 C 81.871094 95.015625 82.339844 97.167969 82.898438 99.332031 C 83.121094 100.191406 83.347656 101.140625 83.339844 101.929688 C 83.320312 103.050781 83.566406 104.058594 83.859375 105.0625 C 84.078125 105.820312 84.234375 106.609375 84.601562 107.339844 C 84.867188 107.871094 85.359375 108.199219 85.664062 108.707031 C 85.851562 109.011719 86.703125 109.105469 87.1875 108.992188 C 87.710938 108.871094 87.980469 109.125 88.351562 109.300781 C 89.511719 109.84375 90.125 110.902344 90.839844 111.863281 C 91.0625 112.164062 90.960938 112.46875 90.667969 112.679688 C 90.347656 112.910156 90.136719 112.699219 89.945312 112.460938 C 89.699219 112.160156 89.632812 111.742188 89.121094 111.632812 C 88.53125 111.5 88.054688 111.050781 87.613281 111.976562 C 87.347656 112.527344 86.667969 112.914062 86.105469 113.269531 C 85.105469 113.894531 83.40625 113.398438 82.652344 112.324219 C 82.179688 111.648438 81.917969 110.867188 81.589844 110.121094 C 81.003906 108.804688 80.503906 107.457031 79.632812 106.277344 C 79.09375 105.546875 79.234375 104.609375 79.160156 103.761719 C 78.898438 100.820312 78.691406 97.875 78.460938 94.933594 C 78.449219 94.789062 78.472656 94.613281 78.398438 94.507812 C 77.316406 92.964844 78.109375 91.339844 78.21875 89.761719 C 78.390625 87.292969 78.605469 84.828125 78.023438 82.382812 C 77.972656 82.164062 78.023438 81.886719 77.75 81.765625 C 77.585938 81.761719 77.554688 81.875 77.511719 81.992188 C 76.792969 83.972656 76.5 86.042969 76.164062 88.117188 C 75.816406 90.28125 75.25 92.410156 74.332031 94.429688 C 74.070312 95.003906 73.753906 95.503906 73.363281 95.996094 C 72.792969 96.707031 72.503906 97.566406 72.238281 98.441406 C 72.042969 99.097656 71.78125 99.777344 70.929688 99.898438 C 70.574219 99.949219 70.347656 100.214844 70.121094 100.46875 C 69.410156 101.265625 68.570312 101.902344 67.628906 102.402344 C 67 102.734375 66.664062 103.402344 66.035156 103.742188 C 65.773438 103.882812 65.578125 104.058594 65.28125 103.78125 C 64.953125 103.476562 64.5625 103.6875 64.269531 103.835938 C 63.226562 104.359375 62.023438 104.328125 60.980469 104.871094 C 60.507812 105.113281 59.925781 104.816406 59.375 104.847656 C 57.941406 104.921875 56.472656 105.007812 55.070312 104.773438 C 54.082031 104.609375 53.0625 104.347656 52.105469 103.960938 C 51.195312 103.589844 50.300781 103.167969 49.328125 102.984375 C 49.257812 102.96875 49.179688 102.941406 49.132812 102.894531 C 48.371094 102.09375 47.214844 101.832031 46.507812 100.949219 C 46.210938 100.578125 45.855469 100.253906 45.394531 100.054688 C 45.125 99.9375 44.933594 99.710938 44.839844 99.421875 C 44.667969 98.90625 44.390625 98.523438 43.78125 98.511719 C 43.558594 98.507812 43.382812 98.335938 43.40625 98.144531 C 43.484375 97.5 43.070312 97.140625 42.761719 96.65625 C 42.269531 95.882812 41.964844 94.96875 41.664062 94.085938 C 41.183594 92.679688 40.796875 91.238281 40.3125 89.832031 C 40.046875 89.0625 40.117188 88.207031 39.664062 87.484375 C 39.5625 87.320312 39.695312 87.113281 39.703125 86.925781 C 39.753906 85.5 40.027344 84.0625 39.351562 82.683594 C 39.164062 82.300781 39.265625 81.824219 39.460938 81.433594 C 39.84375 80.667969 39.496094 79.96875 39.277344 79.277344 C 39.148438 78.867188 38.511719 78.90625 38.3125 79.351562 C 37.933594 80.191406 37.425781 81.011719 37.800781 82.023438 C 37.984375 82.511719 38.027344 83.042969 37.855469 83.578125 C 37.730469 83.96875 38 84.320312 38.082031 84.691406 C 38.359375 85.917969 38.136719 87.183594 38.382812 88.414062 C 38.40625 88.523438 38.386719 88.679688 38.320312 88.761719 C 37.644531 89.597656 37.839844 90.585938 37.828125 91.53125 C 37.792969 93.667969 37.953125 95.808594 37.710938 97.941406 C 37.6875 98.175781 37.726562 98.425781 37.769531 98.65625 C 37.886719 99.261719 37.75 99.792969 37.398438 100.292969 C 37.09375 100.726562 36.820312 101.179688 36.542969 101.625 C 36.292969 102.03125 36.175781 102.441406 36.351562 102.925781 C 36.53125 103.429688 36.402344 103.824219 35.808594 103.957031 C 35.457031 104.03125 35.339844 104.335938 35.195312 104.613281 C 34.582031 105.785156 33.890625 106.921875 33.375 108.136719 C 32.925781 109.191406 31.871094 109.492188 31.171875 110.21875 C 30.664062 110.742188 29.921875 111.003906 29.574219 111.71875 C 29.394531 112.089844 28.980469 111.671875 28.671875 111.929688 C 28.664062 112.285156 28.746094 112.789062 28.03125 112.617188 C 27.863281 112.582031 27.925781 113.023438 27.6875 113.121094 C 26.875 112.835938 24.929688 113.613281 24.339844 114.398438 C 23.902344 114.980469 23.65625 115.582031 23.796875 116.316406 C 23.808594 116.378906 23.800781 116.480469 23.761719 116.519531 C 23.285156 116.964844 22.8125 116.550781 22.339844 116.5 C 22.011719 116.464844 21.714844 116.320312 21.828125 115.886719 C 21.921875 115.539062 21.945312 115.128906 22.152344 114.867188 C 22.992188 113.792969 23.210938 112.359375 24.292969 111.414062 C 24.886719 110.894531 25.484375 110.375 26.105469 109.882812 C 27.105469 109.097656 28.113281 108.324219 29.117188 107.539062 C 29.207031 107.46875 29.324219 107.382812 29.351562 107.28125 C 29.972656 105.03125 31.441406 103.253906 32.636719 101.324219 C 32.820312 101.027344 33.230469 100.792969 32.8125 100.359375 C 32.75 100.292969 32.898438 100.007812 32.964844 99.828125 C 33.285156 99.019531 33.464844 98.179688 33.566406 97.261719 M 61.027344 38.722656 C 61.007812 38.707031 60.992188 38.6875 60.972656 38.679688 C 60.953125 38.671875 60.90625 38.675781 60.90625 38.679688 C 60.832031 39.257812 61.078125 39.609375 61.617188 39.675781 C 61.558594 39.296875 61.292969 39.054688 61.027344 38.722656 M 55.984375 39.40625 C 55.960938 39.574219 55.90625 39.769531 56.179688 39.761719 C 56.382812 39.753906 56.472656 39.609375 56.5 39.429688 C 56.523438 39.285156 56.527344 39.121094 56.363281 39.058594 C 56.144531 38.984375 56.074219 39.15625 55.984375 39.40625 Z M 55.984375 39.40625 "/><g clip-rule="nonzero" clip-path="url(#5c7ebd6f6a)"><path style=" stroke:none;fill-rule:nonzero;fill:#005a48;fill-opacity:1;" d="M 54.707031 37.765625 L 62.679688 37.765625 L 62.679688 41.699219 L 54.707031 41.699219 Z M 54.707031 37.765625 "/></g></g></svg>