<svg xmlns="http://www.w3.org/2000/svg" xmlns:xlink="http://www.w3.org/1999/xlink" width="200" zoomAndPan="magnify" viewBox="0 0 150 74.999997" height="100" preserveAspectRatio="xMidYMid meet" version="1.2"><g id="5ff14aecbd"><path style=" stroke:none;fill-rule:evenodd;fill:#f4f6f1;fill-opacity:1;" d="M 61.867188 2.453125 C 61.675781 2.503906 60.859375 3.542969 60.859375 3.738281 C 60.859375 3.792969 60.675781 4.246094 60.449219 4.746094 C 59.992188 5.757812 59.652344 6.515625 59.429688 7.027344 C 59.347656 7.21875 59.148438 7.65625 58.988281 8.003906 C 58.714844 8.59375 58.511719 9.066406 58.171875 9.898438 C 58.007812 10.296875 57.597656 11.625 57.410156 12.351562 C 57.316406 12.710938 57.101562 13.023438 56.621094 13.5 C 56.078125 14.03125 55.863281 14.363281 55.457031 15.300781 C 54.847656 16.707031 54.566406 17.152344 54.191406 17.3125 C 53.402344 17.640625 51.722656 19.570312 50.875 21.109375 C 50.75 21.335938 50.558594 21.59375 50.449219 21.683594 C 50.257812 21.847656 49.375 22.089844 48.554688 22.210938 C 48.3125 22.246094 47.910156 22.460938 47.578125 22.726562 C 47.265625 22.980469 46.730469 23.367188 46.382812 23.589844 C 46.035156 23.8125 45.699219 24.058594 45.632812 24.132812 C 45.570312 24.207031 45.199219 24.515625 44.8125 24.820312 C 44.421875 25.125 43.921875 25.648438 43.695312 25.988281 C 43.394531 26.441406 43.207031 26.613281 42.976562 26.636719 C 42.714844 26.667969 42.589844 26.824219 42.175781 27.652344 C 41.597656 28.796875 41.425781 28.953125 41.101562 28.625 C 40.882812 28.410156 40.878906 28.335938 41 27.335938 C 41.113281 26.429688 41.105469 26.214844 40.953125 25.84375 C 40.59375 24.980469 40.355469 23.535156 40.484375 23.042969 C 40.597656 22.625 40.578125 22.558594 40.277344 22.175781 C 40.09375 21.945312 39.945312 21.65625 39.945312 21.53125 C 39.945312 21.40625 39.84375 20.832031 39.714844 20.253906 C 39.183594 17.859375 38.957031 17.449219 38.03125 17.222656 C 36.914062 16.953125 36.621094 16.941406 35.828125 17.132812 C 34.417969 17.480469 34.097656 17.832031 33.859375 19.304688 C 33.796875 19.695312 33.636719 20.65625 33.503906 21.449219 C 33.367188 22.238281 33.214844 23.433594 33.164062 24.109375 C 33.101562 24.9375 33.007812 25.429688 32.875 25.632812 C 32.730469 25.851562 32.699219 26.054688 32.757812 26.429688 C 32.816406 26.828125 32.796875 26.949219 32.65625 27.003906 C 32.398438 27.101562 32.4375 27.652344 32.726562 27.957031 C 32.929688 28.175781 32.945312 28.25 32.824219 28.394531 C 32.457031 28.835938 32.039062 28.496094 31.410156 27.246094 C 31.316406 27.058594 31.046875 26.722656 30.8125 26.5 C 30.578125 26.28125 30.25 25.945312 30.082031 25.757812 C 29.449219 25.035156 28.601562 24.285156 27.867188 23.796875 C 27.023438 23.234375 26.390625 22.632812 26.390625 22.402344 C 26.390625 22.304688 26.234375 22.25 25.941406 22.25 C 25.695312 22.25 25.4375 22.179688 25.359375 22.085938 C 25.285156 21.996094 25.058594 21.890625 24.859375 21.851562 C 23.851562 21.652344 23.78125 21.5625 23.113281 19.609375 C 22.390625 17.511719 22.230469 17.148438 21.820312 16.71875 C 21.429688 16.308594 21.421875 16.277344 21.480469 15.570312 C 21.53125 14.925781 21.917969 12.898438 22.089844 12.339844 C 22.125 12.226562 22.527344 11.957031 22.980469 11.738281 C 24.175781 11.160156 24.378906 10.957031 24.378906 10.351562 C 24.378906 9.933594 24.3125 9.785156 23.953125 9.417969 C 23.722656 9.175781 23.476562 8.835938 23.410156 8.664062 C 23.261719 8.261719 23.070312 8.1875 22.441406 8.285156 C 21.820312 8.375 21.449219 8.707031 21.449219 9.15625 C 21.449219 9.453125 21.40625 9.5 21.125 9.5 C 20.789062 9.5 19.914062 9.996094 19.597656 10.371094 C 19.496094 10.492188 19.320312 10.835938 19.207031 11.140625 C 18.828125 12.152344 19.160156 18.089844 19.625 18.652344 C 19.800781 18.859375 20.644531 20.617188 20.644531 20.765625 C 20.644531 21.003906 21.214844 21.992188 21.664062 22.535156 C 21.917969 22.84375 22.160156 23.238281 22.195312 23.40625 C 22.28125 23.789062 22.960938 24.472656 23.574219 24.789062 C 23.828125 24.917969 24.601562 25.257812 25.296875 25.542969 C 26.007812 25.835938 26.660156 26.179688 26.789062 26.335938 C 26.949219 26.523438 27.164062 26.621094 27.480469 26.640625 L 27.941406 26.675781 L 27.972656 27.476562 C 28.015625 28.414062 28.128906 28.585938 29.003906 29 C 29.632812 29.300781 29.730469 29.472656 29.421875 29.730469 C 29.265625 29.859375 29.246094 30.027344 29.308594 30.714844 C 29.351562 31.183594 29.339844 31.566406 29.277344 31.605469 C 29.125 31.699219 28.179688 31.261719 27.308594 30.691406 C 26.675781 30.28125 26.019531 29.960938 24.609375 29.382812 C 24.480469 29.332031 24.160156 29.195312 23.890625 29.085938 C 23.539062 28.9375 23.246094 28.902344 22.816406 28.953125 C 22.054688 29.042969 21.71875 28.898438 20.675781 28.023438 C 19.695312 27.203125 19.257812 26.925781 18.632812 26.734375 C 18.378906 26.65625 18.125 26.542969 18.066406 26.488281 C 18.003906 26.433594 17.886719 26.386719 17.800781 26.386719 C 17.566406 26.386719 16.988281 25.953125 16.136719 25.132812 C 15.6875 24.703125 15.160156 24.3125 14.882812 24.210938 C 14.460938 24.054688 14.3125 23.890625 13.675781 22.882812 C 13.277344 22.25 12.875 21.578125 12.777344 21.390625 C 12.679688 21.199219 12.484375 20.910156 12.34375 20.746094 C 12.199219 20.578125 11.902344 20.179688 11.683594 19.859375 C 11.429688 19.488281 11.085938 19.164062 10.746094 18.980469 C 10.167969 18.664062 9.5 17.984375 9.5 17.707031 C 9.5 17.507812 8.847656 17.082031 8.535156 17.082031 C 8.351562 17.082031 8.328125 17.144531 8.386719 17.488281 C 8.433594 17.773438 8.664062 18.125 9.160156 18.664062 C 9.992188 19.574219 10.417969 20.347656 10.417969 20.960938 C 10.417969 21.542969 12.175781 24.964844 12.902344 25.792969 C 13.574219 26.558594 15.226562 27.84375 16.164062 28.332031 C 16.574219 28.542969 17.066406 28.863281 17.253906 29.039062 C 17.445312 29.21875 17.78125 29.441406 18.007812 29.535156 C 18.230469 29.628906 18.855469 29.960938 19.398438 30.273438 C 20.28125 30.78125 21.585938 31.328125 21.921875 31.328125 C 21.992188 31.328125 22.226562 31.484375 22.441406 31.671875 C 22.660156 31.863281 22.921875 32.023438 23.03125 32.027344 C 23.6875 32.058594 23.867188 32.105469 24.074219 32.289062 C 24.222656 32.425781 24.390625 32.472656 24.539062 32.421875 C 24.671875 32.382812 25.140625 32.382812 25.582031 32.429688 L 26.390625 32.507812 L 26.390625 33.109375 C 26.390625 33.640625 26.425781 33.738281 26.703125 33.921875 C 26.875 34.035156 27.171875 34.160156 27.363281 34.199219 C 27.683594 34.265625 27.707031 34.308594 27.675781 34.699219 C 27.65625 34.933594 27.53125 35.316406 27.398438 35.554688 C 27.140625 36.015625 24.949219 38.222656 24.753906 38.222656 C 24.464844 38.222656 23.835938 38.746094 23.261719 39.460938 C 22.664062 40.207031 21.910156 41.355469 21.90625 41.527344 C 21.902344 41.605469 21.296875 42.558594 20.792969 43.277344 C 20.679688 43.4375 20.359375 43.785156 20.074219 44.054688 C 19.574219 44.527344 19.566406 44.542969 19.859375 44.542969 C 20.023438 44.542969 20.28125 44.640625 20.429688 44.761719 L 20.703125 44.984375 L 20.480469 45.367188 C 19.929688 46.316406 19.726562 46.496094 19.203125 46.496094 C 18.933594 46.496094 18.628906 46.527344 18.527344 46.566406 C 18.238281 46.675781 18.3125 46.953125 18.632812 46.953125 C 18.960938 46.953125 19.035156 47.292969 18.757812 47.523438 C 18.664062 47.597656 18.476562 47.941406 18.332031 48.285156 C 18.09375 48.859375 18.027344 48.925781 17.457031 49.136719 C 17.121094 49.265625 16.75 49.367188 16.636719 49.367188 C 16.304688 49.367188 15.109375 49.8125 14.878906 50.015625 C 14.640625 50.234375 13.707031 50.242188 12.335938 50.042969 C 10.402344 49.765625 9.625 49.777344 8.648438 50.105469 L 7.742188 50.410156 L 7.492188 50.175781 C 7.007812 49.71875 6.53125 49.902344 6.125 50.710938 C 5.691406 51.566406 6.070312 51.921875 7.140625 51.667969 C 7.644531 51.546875 7.800781 51.542969 7.941406 51.660156 C 8.085938 51.78125 8.175781 51.753906 8.472656 51.503906 C 8.898438 51.144531 9.035156 51.136719 9.359375 51.4375 C 9.933594 51.972656 12.765625 52.585938 14.660156 52.585938 L 15.992188 52.585938 L 17.597656 51.777344 C 18.484375 51.335938 19.417969 50.859375 19.671875 50.714844 C 19.929688 50.574219 20.265625 50.40625 20.417969 50.34375 C 20.792969 50.1875 21.1875 49.574219 22.265625 47.445312 C 22.769531 46.453125 23.246094 45.5625 23.320312 45.464844 C 23.546875 45.183594 23.808594 44.636719 23.972656 44.109375 C 24.058594 43.84375 24.277344 43.457031 24.460938 43.25 C 24.746094 42.929688 24.785156 42.800781 24.757812 42.308594 C 24.726562 41.828125 24.757812 41.726562 24.933594 41.691406 C 25.125 41.652344 25.140625 41.714844 25.089844 42.378906 C 25.007812 43.46875 24.765625 44.253906 24.375 44.679688 C 23.691406 45.425781 22.597656 47.25 22.597656 47.648438 C 22.597656 47.742188 22.519531 47.933594 22.421875 48.074219 C 22.324219 48.210938 22.195312 48.746094 22.128906 49.265625 C 21.976562 50.496094 21.6875 52.128906 21.605469 52.265625 C 21.527344 52.386719 21.316406 55.054688 21.328125 55.699219 C 21.332031 55.925781 21.257812 56.261719 21.164062 56.445312 C 20.941406 56.878906 21.152344 57.136719 21.414062 56.75 C 21.511719 56.609375 21.667969 56.492188 21.761719 56.492188 C 21.898438 56.492188 21.882812 56.570312 21.6875 56.898438 C 21.511719 57.199219 21.449219 57.503906 21.449219 58.03125 C 21.449219 58.453125 21.351562 59.03125 21.21875 59.421875 C 21.070312 59.847656 20.988281 60.386719 20.988281 60.917969 C 20.988281 61.398438 20.914062 61.921875 20.816406 62.160156 C 20.722656 62.386719 20.644531 62.707031 20.644531 62.867188 C 20.644531 63.03125 20.394531 63.53125 20.082031 63.992188 C 19.382812 65.019531 18.578125 66.480469 18.578125 66.730469 C 18.574219 66.921875 17.820312 67.617188 16.648438 68.5 C 15.402344 69.441406 14.949219 69.949219 14.390625 71.042969 C 14.09375 71.621094 13.84375 72.238281 13.832031 72.417969 C 13.808594 72.707031 13.867188 72.765625 14.296875 72.917969 C 14.949219 73.144531 15.167969 73.007812 15.25 72.3125 C 15.285156 71.984375 15.410156 71.675781 15.574219 71.503906 C 15.835938 71.222656 16.929688 70.738281 17.300781 70.738281 C 17.621094 70.738281 18.113281 70.464844 18.179688 70.25 C 18.21875 70.140625 18.320312 70.050781 18.410156 70.050781 C 18.503906 70.050781 18.820312 69.816406 19.121094 69.53125 C 19.421875 69.242188 19.933594 68.824219 20.257812 68.601562 C 20.730469 68.273438 20.9375 68.011719 21.300781 67.308594 C 22.253906 65.453125 22.402344 65.214844 22.722656 65.027344 C 23.023438 64.847656 23.058594 64.769531 23.058594 64.226562 C 23.058594 63.730469 23.125 63.527344 23.429688 63.09375 L 23.804688 62.5625 L 23.859375 59.320312 C 23.910156 56.523438 23.945312 56.039062 24.113281 55.78125 C 24.324219 55.460938 24.3125 55.113281 23.972656 51.824219 C 23.847656 50.609375 23.851562 50.527344 24.085938 50.066406 C 24.25 49.742188 24.394531 49.59375 24.527344 49.621094 C 24.773438 49.667969 24.898438 50.390625 24.761719 50.996094 C 24.691406 51.316406 24.714844 51.644531 24.839844 52.128906 C 24.949219 52.550781 25.003906 53.214844 24.992188 53.875 C 24.96875 54.917969 25.078125 55.621094 25.40625 56.550781 C 25.496094 56.800781 25.765625 57.628906 26.003906 58.386719 C 26.242188 59.144531 26.605469 60.058594 26.816406 60.417969 C 27.023438 60.777344 27.191406 61.175781 27.191406 61.304688 C 27.191406 61.46875 27.320312 61.597656 27.597656 61.710938 C 27.828125 61.808594 28.046875 62.003906 28.109375 62.167969 C 28.167969 62.328125 28.425781 62.59375 28.683594 62.765625 C 28.9375 62.933594 29.144531 63.113281 29.144531 63.164062 C 29.144531 63.292969 30.339844 64.125 30.925781 64.40625 C 31.441406 64.652344 33.386719 65.335938 34.085938 65.519531 C 35.210938 65.808594 37.886719 65.824219 38.546875 65.546875 C 38.824219 65.433594 39.167969 65.339844 39.316406 65.339844 C 39.460938 65.339844 39.816406 65.238281 40.105469 65.113281 C 40.445312 64.96875 40.761719 64.914062 41.019531 64.957031 C 41.351562 65.007812 41.480469 64.957031 41.855469 64.628906 C 42.101562 64.414062 42.53125 64.085938 42.808594 63.898438 C 43.089844 63.710938 43.554688 63.347656 43.84375 63.085938 C 44.132812 62.828125 44.527344 62.542969 44.714844 62.453125 C 44.988281 62.328125 45.132812 62.109375 45.40625 61.421875 C 45.597656 60.945312 45.921875 60.296875 46.121094 59.984375 C 46.960938 58.675781 47.359375 57.460938 47.867188 54.652344 C 48.242188 52.582031 48.609375 51.089844 48.738281 51.128906 C 48.878906 51.175781 48.882812 56.296875 48.746094 57.480469 C 48.667969 58.128906 48.6875 58.402344 48.832031 58.800781 C 49.023438 59.324219 49.296875 61.898438 49.429688 64.441406 C 49.488281 65.5625 49.554688 65.988281 49.722656 66.28125 C 49.925781 66.632812 50.421875 67.632812 51.398438 69.671875 C 51.832031 70.570312 52.242188 70.925781 52.996094 71.050781 C 53.519531 71.132812 54.535156 70.628906 54.820312 70.140625 C 55.101562 69.664062 55.605469 69.699219 56.109375 70.234375 C 56.535156 70.6875 56.789062 70.6875 56.902344 70.230469 C 56.957031 70.007812 56.875 69.804688 56.539062 69.347656 C 55.929688 68.515625 55.234375 68.097656 54.464844 68.097656 C 53.894531 68.097656 53.84375 68.070312 53.480469 67.609375 C 53.265625 67.339844 53.003906 66.921875 52.894531 66.683594 C 52.613281 66.054688 52.242188 64.296875 52.242188 63.578125 C 52.242188 63.242188 52.164062 62.710938 52.070312 62.398438 C 51.609375 60.835938 51.445312 59.519531 51.449219 57.40625 C 51.453125 55.164062 51.242188 53.40625 50.671875 50.976562 C 50.515625 50.3125 50.347656 49.460938 50.296875 49.082031 C 50.191406 48.277344 49.800781 47.296875 49.363281 46.726562 C 48.796875 45.988281 48.566406 45.523438 48.566406 45.117188 C 48.566406 44.894531 48.480469 44.082031 48.371094 43.308594 C 48.210938 42.1875 48.199219 41.875 48.3125 41.761719 C 48.492188 41.582031 48.832031 41.769531 48.894531 42.082031 C 48.917969 42.199219 49 42.347656 49.082031 42.414062 C 49.222656 42.53125 49.75 43.445312 50.234375 44.425781 C 50.375 44.710938 50.667969 45.132812 50.886719 45.363281 C 51.105469 45.59375 51.445312 46.109375 51.648438 46.515625 C 51.847656 46.917969 52.273438 47.53125 52.589844 47.878906 C 52.90625 48.222656 53.34375 48.765625 53.558594 49.082031 C 53.773438 49.398438 54.105469 49.773438 54.296875 49.914062 C 54.648438 50.175781 55.84375 50.605469 56.894531 50.847656 C 57.210938 50.921875 57.890625 51.082031 58.40625 51.207031 C 59.960938 51.585938 60.640625 51.507812 62.238281 50.78125 C 62.457031 50.683594 62.769531 50.511719 62.925781 50.40625 C 63.085938 50.296875 63.515625 50.089844 63.882812 49.945312 C 64.59375 49.664062 65.796875 48.839844 65.800781 48.628906 C 65.808594 48.402344 66.234375 47.988281 66.457031 47.988281 C 66.578125 47.988281 66.84375 48.195312 67.046875 48.445312 C 67.65625 49.203125 68.554688 49.277344 68.554688 48.566406 C 68.554688 47.84375 68.066406 47.300781 67.417969 47.300781 C 67.292969 47.300781 67.007812 47.191406 66.785156 47.058594 C 66.457031 46.867188 66.242188 46.828125 65.714844 46.871094 C 64.78125 46.945312 63.578125 47.269531 63.007812 47.601562 C 62.742188 47.757812 62.445312 47.929688 62.351562 47.980469 C 62.0625 48.148438 60.695312 48.679688 60.558594 48.679688 C 60.488281 48.679688 60.289062 48.570312 60.121094 48.4375 C 59.765625 48.15625 59.683594 48.152344 58.214844 48.308594 C 57.046875 48.433594 56.722656 48.363281 56.722656 47.992188 C 56.722656 47.863281 56.226562 47.320312 55.492188 46.648438 C 53.628906 44.941406 53.371094 44.664062 53.410156 44.398438 C 53.472656 43.988281 53.761719 43.910156 54.378906 44.128906 C 55.289062 44.457031 55.601562 44.492188 55.554688 44.261719 C 55.515625 44.074219 55.117188 43.875 53.941406 43.457031 C 53.550781 43.316406 53.394531 43.195312 53.367188 43.011719 C 53.339844 42.824219 53.265625 42.769531 53.074219 42.796875 C 52.75 42.839844 52.734375 42.640625 53.046875 42.472656 C 53.363281 42.300781 53.261719 42.1875 52.640625 42.011719 C 52.277344 41.914062 52.019531 41.742188 51.816406 41.480469 C 51.65625 41.269531 51.457031 41.09375 51.371094 41.09375 C 51.289062 41.09375 50.988281 40.796875 50.707031 40.433594 C 49.660156 39.089844 48.554688 38.222656 47.878906 38.222656 C 47.117188 38.222656 46.800781 37.886719 46.453125 36.707031 C 46.304688 36.214844 46.308594 36.152344 46.5 35.980469 C 46.691406 35.808594 46.738281 35.816406 47.203125 36.105469 C 47.476562 36.277344 47.726562 36.453125 47.761719 36.496094 C 47.945312 36.742188 49.429688 37.773438 49.691406 37.832031 C 49.859375 37.875 50.257812 38.152344 50.574219 38.453125 C 50.890625 38.753906 51.667969 39.296875 52.296875 39.664062 C 52.929688 40.027344 53.535156 40.402344 53.644531 40.496094 C 53.753906 40.585938 54.089844 40.707031 54.390625 40.765625 C 54.894531 40.855469 56.078125 41.273438 57.230469 41.761719 C 57.558594 41.898438 58.011719 41.953125 58.839844 41.949219 C 59.917969 41.949219 60.105469 41.910156 61.605469 41.394531 C 62.488281 41.089844 63.527344 40.722656 63.90625 40.578125 C 64.289062 40.4375 64.9375 40.28125 65.34375 40.234375 C 66.191406 40.140625 66.601562 39.855469 66.601562 39.371094 C 66.601562 39.039062 66.292969 38.683594 66.007812 38.683594 C 65.914062 38.683594 65.738281 38.574219 65.617188 38.441406 C 65.445312 38.253906 65.316406 38.21875 64.996094 38.273438 C 64.773438 38.3125 64.257812 38.386719 63.84375 38.441406 C 62.933594 38.558594 62.574219 38.640625 61.835938 38.90625 C 59.859375 39.609375 59.472656 39.671875 58.9375 39.390625 C 58.691406 39.257812 58.175781 39.132812 57.753906 39.101562 C 57.339844 39.066406 56.769531 38.941406 56.484375 38.816406 C 55.964844 38.597656 55.191406 37.953125 55.101562 37.671875 C 55.074219 37.589844 54.925781 37.515625 54.765625 37.507812 C 54.609375 37.5 54.378906 37.40625 54.25 37.304688 C 54.125 37.199219 53.839844 37.101562 53.621094 37.089844 C 52.332031 37.019531 51.449219 36.21875 51.835938 35.472656 C 51.925781 35.296875 51.96875 35.117188 51.929688 35.078125 C 51.890625 35.039062 51.609375 35.003906 51.308594 35.003906 C 50.714844 35.003906 50.535156 34.882812 50.804688 34.660156 C 50.898438 34.582031 50.976562 34.417969 50.976562 34.292969 C 50.976562 34.089844 50.921875 34.078125 50.359375 34.148438 C 49.800781 34.21875 49.738281 34.203125 49.683594 33.984375 C 49.632812 33.785156 49.53125 33.742188 49.121094 33.742188 C 48.789062 33.742188 48.390625 33.621094 47.933594 33.382812 C 47.242188 33.027344 46.902344 32.933594 45.410156 32.671875 C 44.726562 32.550781 44.585938 32.484375 44.398438 32.1875 C 44.234375 31.921875 44.203125 31.730469 44.261719 31.328125 C 44.304688 31.042969 44.332031 30.542969 44.324219 30.214844 C 44.308594 29.636719 44.324219 29.609375 44.714844 29.425781 C 45.46875 29.066406 45.769531 28.3125 45.441406 27.597656 C 45.371094 27.4375 45.339844 27.273438 45.378906 27.238281 C 45.417969 27.199219 46.050781 26.964844 46.78125 26.71875 C 47.515625 26.472656 48.460938 26.097656 48.886719 25.882812 C 50.007812 25.3125 52.316406 23.546875 53.042969 22.699219 C 53.386719 22.296875 54.125 21.492188 54.679688 20.914062 C 55.234375 20.332031 55.6875 19.777344 55.6875 19.675781 C 55.6875 19.574219 55.90625 19.253906 56.171875 18.964844 C 56.4375 18.671875 56.8125 18.1875 57.003906 17.886719 C 57.503906 17.097656 58.292969 15.988281 58.503906 15.777344 C 58.601562 15.675781 58.816406 15.296875 58.980469 14.929688 C 59.144531 14.566406 59.453125 13.894531 59.664062 13.441406 C 59.878906 12.988281 60.054688 12.570312 60.054688 12.511719 C 60.054688 12.359375 61.722656 7.339844 61.953125 6.796875 C 62.0625 6.546875 62.296875 6.148438 62.480469 5.917969 C 62.855469 5.445312 63.15625 4.6875 63.15625 4.21875 C 63.15625 4.050781 63.078125 3.640625 62.980469 3.316406 C 62.847656 2.867188 62.71875 2.675781 62.46875 2.546875 C 62.285156 2.453125 62.117188 2.378906 62.097656 2.386719 C 62.082031 2.394531 61.976562 2.425781 61.867188 2.453125 M 62.519531 3.582031 C 62.710938 4.183594 62.707031 4.242188 62.515625 4.785156 C 62.402344 5.097656 62.195312 5.476562 62.054688 5.628906 C 61.625 6.089844 61.378906 6.691406 60.457031 9.554688 C 59.203125 13.453125 58.558594 14.878906 57.300781 16.5625 C 56.875 17.132812 56.453125 17.726562 56.367188 17.878906 C 56.277344 18.03125 56.066406 18.28125 55.898438 18.425781 C 55.730469 18.574219 55.476562 18.941406 55.335938 19.238281 C 55.195312 19.539062 54.789062 20.066406 54.4375 20.414062 C 54.082031 20.761719 53.234375 21.648438 52.554688 22.386719 C 51.875 23.125 51.203125 23.765625 51.0625 23.8125 C 50.921875 23.855469 50.554688 24.113281 50.246094 24.382812 C 49.5625 24.980469 48.078125 25.726562 46.558594 26.238281 C 45.925781 26.449219 45.292969 26.703125 45.148438 26.796875 C 44.859375 26.984375 44.804688 27.421875 45.003906 27.945312 C 45.183594 28.414062 45.042969 28.660156 44.433594 28.972656 C 43.832031 29.277344 43.679688 29.574219 43.800781 30.214844 C 43.835938 30.417969 43.820312 30.792969 43.761719 31.046875 C 43.632812 31.617188 43.835938 32.511719 44.167969 32.84375 C 44.328125 33.003906 44.597656 33.089844 45.039062 33.121094 C 45.386719 33.144531 45.8125 33.21875 45.976562 33.28125 C 46.144531 33.34375 46.398438 33.398438 46.542969 33.398438 C 46.6875 33.398438 47.15625 33.578125 47.578125 33.800781 C 48.015625 34.027344 48.519531 34.203125 48.738281 34.203125 C 49 34.203125 49.222656 34.296875 49.414062 34.488281 C 49.574219 34.644531 49.796875 34.777344 49.910156 34.777344 C 50.023438 34.777344 50.199219 34.929688 50.304688 35.113281 C 50.433594 35.335938 50.605469 35.460938 50.820312 35.484375 C 51.09375 35.515625 51.15625 35.585938 51.214844 35.933594 C 51.300781 36.480469 51.730469 37.066406 52.171875 37.246094 C 52.367188 37.324219 52.8125 37.453125 53.160156 37.535156 C 53.507812 37.617188 53.894531 37.75 54.019531 37.835938 C 54.144531 37.921875 54.359375 37.992188 54.5 37.992188 C 54.648438 37.992188 54.78125 38.082031 54.824219 38.210938 C 55 38.773438 56.371094 39.480469 57.296875 39.484375 C 57.722656 39.488281 58.128906 39.582031 58.542969 39.773438 C 58.882812 39.933594 59.324219 40.0625 59.527344 40.0625 C 59.730469 40.0625 60.644531 39.824219 61.554688 39.53125 C 62.46875 39.242188 63.550781 38.976562 63.960938 38.941406 C 64.371094 38.910156 64.792969 38.835938 64.898438 38.78125 C 65.027344 38.714844 65.152344 38.738281 65.265625 38.855469 C 65.359375 38.949219 65.570312 39.078125 65.734375 39.136719 C 65.894531 39.199219 66.027344 39.328125 66.027344 39.425781 C 66.027344 39.523438 66.015625 39.601562 66 39.601562 C 65.542969 39.605469 63.777344 40.058594 62.640625 40.464844 C 59.636719 41.542969 59.492188 41.582031 58.617188 41.519531 C 58.011719 41.480469 57.496094 41.335938 56.523438 40.9375 C 55.816406 40.648438 55.023438 40.375 54.765625 40.335938 C 54.507812 40.292969 54.109375 40.132812 53.878906 39.976562 C 53.652344 39.824219 52.996094 39.429688 52.421875 39.109375 C 51.847656 38.785156 51.132812 38.277344 50.828125 37.980469 C 50.527344 37.683594 50.140625 37.40625 49.96875 37.363281 C 49.796875 37.320312 49.273438 36.992188 48.808594 36.632812 C 47.160156 35.371094 46.902344 35.246094 46.34375 35.457031 C 45.804688 35.664062 45.726562 36.039062 46.023438 37.050781 C 46.304688 38.007812 46.679688 38.519531 47.171875 38.613281 C 47.335938 38.640625 47.671875 38.699219 47.914062 38.738281 C 48.269531 38.796875 48.5625 39.011719 49.390625 39.808594 C 49.960938 40.355469 50.5 40.949219 50.589844 41.121094 C 50.679688 41.296875 50.816406 41.441406 50.894531 41.441406 C 50.972656 41.441406 51.226562 41.644531 51.464844 41.898438 C 51.699219 42.148438 52.023438 42.386719 52.183594 42.425781 C 52.589844 42.527344 52.972656 43.378906 52.988281 44.21875 C 53.003906 45.066406 53.160156 45.339844 54.011719 46 C 55.191406 46.921875 56.050781 47.792969 56.269531 48.292969 C 56.53125 48.898438 56.753906 48.953125 58.386719 48.796875 C 59.585938 48.683594 59.648438 48.691406 59.894531 48.921875 C 60.101562 49.117188 60.253906 49.152344 60.707031 49.109375 C 61.3125 49.050781 62.433594 48.609375 63.261719 48.097656 C 63.96875 47.664062 65.808594 47.214844 66.171875 47.386719 C 66.421875 47.507812 66.421875 47.515625 66.191406 47.523438 C 66.039062 47.527344 65.757812 47.777344 65.429688 48.203125 C 65.015625 48.734375 64.753906 48.945312 64.175781 49.207031 C 63.773438 49.386719 63.058594 49.738281 62.589844 49.980469 C 61.140625 50.738281 60.308594 51.007812 59.652344 50.933594 C 58.757812 50.828125 55.539062 49.988281 55.019531 49.722656 C 54.765625 49.59375 54.398438 49.292969 54.207031 49.054688 C 54.015625 48.816406 53.539062 48.234375 53.152344 47.757812 C 52.761719 47.285156 52.289062 46.585938 52.101562 46.207031 C 51.914062 45.828125 51.585938 45.335938 51.378906 45.117188 C 51.167969 44.894531 50.703125 44.171875 50.34375 43.507812 C 49.984375 42.84375 49.617188 42.21875 49.53125 42.121094 C 49.441406 42.019531 49.367188 41.878906 49.367188 41.804688 C 49.367188 41.53125 48.910156 41.210938 48.515625 41.210938 C 47.96875 41.210938 47.597656 41.675781 47.703125 42.230469 C 47.742188 42.449219 47.875 43.402344 47.988281 44.347656 C 48.191406 45.960938 48.222656 46.089844 48.558594 46.480469 C 49.152344 47.171875 49.722656 48.457031 49.835938 49.363281 C 49.890625 49.8125 49.984375 50.265625 50.042969 50.375 C 50.167969 50.609375 50.417969 51.933594 50.742188 54.097656 C 50.910156 55.222656 50.976562 56.242188 50.976562 57.675781 C 50.976562 59.71875 51.089844 60.652344 51.558594 62.457031 C 51.679688 62.929688 51.78125 63.574219 51.78125 63.894531 C 51.78125 64.515625 52.128906 66.136719 52.417969 66.871094 C 52.628906 67.40625 53.332031 68.351562 53.597656 68.460938 C 53.707031 68.503906 54.015625 68.542969 54.285156 68.546875 C 54.84375 68.558594 55.292969 68.753906 55.628906 69.136719 L 55.859375 69.394531 L 55.558594 69.320312 C 55.125 69.214844 54.625 69.425781 54.410156 69.804688 C 54.308594 69.980469 53.988281 70.242188 53.699219 70.382812 C 53.195312 70.628906 53.152344 70.632812 52.773438 70.449219 C 52.195312 70.175781 52.101562 70.035156 51.332031 68.273438 C 50.945312 67.394531 50.535156 66.566406 50.414062 66.4375 C 50.097656 66.085938 49.96875 65.535156 49.890625 64.191406 C 49.6875 60.773438 49.5 59.007812 49.289062 58.527344 C 49.117188 58.132812 49.113281 57.992188 49.253906 57.148438 C 49.457031 55.917969 49.472656 52.132812 49.273438 51.464844 C 49.117188 50.9375 48.773438 50.742188 48.367188 50.957031 C 48.109375 51.097656 47.78125 52.320312 47.355469 54.738281 C 46.941406 57.074219 46.222656 59.117188 45.515625 59.964844 C 45.371094 60.136719 45.140625 60.613281 45.003906 61.027344 C 44.777344 61.707031 44.691406 61.820312 44.160156 62.164062 C 43.832031 62.375 43.460938 62.664062 43.335938 62.808594 C 43.210938 62.949219 42.835938 63.242188 42.503906 63.453125 C 42.171875 63.667969 41.742188 63.992188 41.546875 64.183594 C 41.273438 64.441406 41.113281 64.507812 40.882812 64.460938 C 40.710938 64.429688 40.265625 64.503906 39.886719 64.625 C 38.082031 65.214844 37.894531 65.246094 36.15625 65.191406 C 34.410156 65.136719 34.394531 65.132812 32.117188 64.316406 C 30.722656 63.816406 28.902344 62.519531 28.496094 61.738281 C 28.402344 61.5625 28.175781 61.363281 27.988281 61.296875 C 27.75 61.214844 27.652344 61.105469 27.652344 60.917969 C 27.652344 60.773438 27.578125 60.59375 27.488281 60.519531 C 27.242188 60.316406 26.679688 58.894531 26.113281 57.042969 C 25.449219 54.882812 25.453125 54.882812 25.46875 53.617188 C 25.476562 52.953125 25.417969 52.316406 25.3125 51.980469 C 25.1875 51.570312 25.175781 51.339844 25.265625 51.046875 C 25.414062 50.558594 25.289062 49.6875 25.027344 49.359375 C 24.589844 48.820312 23.742188 49.21875 23.511719 50.074219 C 23.378906 50.570312 23.457031 52.675781 23.628906 53.273438 C 23.78125 53.792969 23.78125 55.292969 23.628906 55.574219 C 23.527344 55.765625 23.355469 60.070312 23.386719 61.605469 C 23.398438 62.167969 23.351562 62.285156 22.78125 63.089844 C 22.644531 63.28125 22.554688 63.621094 22.539062 63.980469 C 22.523438 64.46875 22.472656 64.589844 22.226562 64.738281 C 22.035156 64.855469 21.652344 65.457031 21.164062 66.394531 C 20.734375 67.21875 20.269531 67.957031 20.109375 68.070312 C 19.953125 68.179688 19.46875 68.566406 19.039062 68.929688 C 18.609375 69.292969 18.199219 69.589844 18.128906 69.589844 C 18.058594 69.589844 17.886719 69.71875 17.75 69.878906 C 17.609375 70.039062 17.289062 70.222656 17.03125 70.289062 C 16.066406 70.535156 15.574219 70.785156 15.183594 71.214844 C 14.964844 71.457031 14.785156 71.773438 14.78125 71.917969 C 14.78125 72.257812 14.613281 72.511719 14.453125 72.414062 C 14.371094 72.363281 14.511719 71.988281 14.855469 71.335938 C 15.445312 70.214844 16.015625 69.617188 17.796875 68.246094 C 18.410156 67.777344 18.945312 67.277344 18.988281 67.140625 C 19.144531 66.625 19.878906 65.257812 20.492188 64.347656 C 20.867188 63.789062 21.140625 63.25 21.164062 63.023438 C 21.183594 62.8125 21.285156 62.316406 21.386719 61.925781 C 21.488281 61.535156 21.5625 60.992188 21.546875 60.71875 C 21.53125 60.449219 21.636719 59.773438 21.78125 59.214844 C 21.929688 58.636719 22.007812 58.070312 21.96875 57.890625 C 21.929688 57.707031 21.976562 57.390625 22.082031 57.136719 C 22.253906 56.722656 22.226562 56.261719 22.03125 56.261719 C 21.71875 56.261719 21.847656 53.621094 22.261719 51.558594 C 22.394531 50.902344 22.546875 49.996094 22.601562 49.550781 C 22.777344 48.058594 23.109375 47.121094 23.742188 46.316406 C 24.0625 45.910156 24.320312 45.53125 24.320312 45.46875 C 24.320312 45.40625 24.503906 45.210938 24.726562 45.035156 C 25.179688 44.675781 25.28125 44.386719 25.515625 42.804688 C 25.71875 41.449219 25.644531 41.210938 25.019531 41.210938 C 24.378906 41.210938 24.164062 41.457031 24.238281 42.117188 C 24.289062 42.574219 24.257812 42.6875 23.96875 43.019531 C 23.785156 43.226562 23.554688 43.675781 23.457031 44.015625 C 23.355469 44.359375 23.121094 44.832031 22.9375 45.066406 C 22.75 45.300781 22.59375 45.601562 22.589844 45.734375 C 22.585938 46.019531 22.476562 46.230469 21.3125 48.230469 L 20.433594 49.742188 L 19.417969 50.257812 C 18.859375 50.539062 17.78125 51.085938 17.023438 51.472656 L 15.644531 52.171875 L 14.667969 52.15625 C 13.121094 52.132812 10.117188 51.4375 9.511719 50.964844 C 9.179688 50.699219 8.71875 50.683594 8.375 50.925781 C 8.230469 51.027344 8.019531 51.074219 7.894531 51.035156 C 7.773438 50.996094 7.410156 51.042969 7.089844 51.136719 C 6.46875 51.320312 6.394531 51.257812 6.695312 50.800781 C 6.910156 50.476562 7.109375 50.441406 7.316406 50.6875 C 7.515625 50.929688 8.003906 50.902344 8.71875 50.617188 C 9.503906 50.304688 10.335938 50.289062 12.671875 50.554688 L 14.527344 50.761719 L 15.210938 50.417969 C 15.589844 50.226562 16.324219 49.964844 16.84375 49.835938 C 18.179688 49.503906 18.363281 49.394531 18.691406 48.726562 C 18.847656 48.40625 19.070312 48.019531 19.179688 47.871094 C 19.289062 47.71875 19.378906 47.480469 19.378906 47.339844 C 19.378906 47.152344 19.46875 47.070312 19.726562 47.011719 C 20.234375 46.902344 21.023438 45.703125 21.023438 45.035156 C 21.027344 44.769531 20.960938 44.476562 20.882812 44.382812 C 20.765625 44.238281 20.828125 44.085938 21.238281 43.5 C 21.875 42.59375 22.480469 41.636719 22.832031 40.980469 C 23.109375 40.464844 23.878906 39.449219 24.207031 39.164062 C 24.300781 39.082031 24.5625 38.925781 24.792969 38.816406 C 25.019531 38.707031 25.582031 38.246094 26.042969 37.789062 C 26.5 37.332031 26.921875 36.957031 26.972656 36.957031 C 27.191406 36.957031 27.902344 35.835938 28.109375 35.160156 C 28.378906 34.289062 28.292969 33.902344 27.800781 33.785156 C 27.625 33.742188 27.339844 33.636719 27.164062 33.550781 C 26.875 33.40625 26.851562 33.339844 26.875 32.808594 C 26.90625 32.074219 26.75 31.945312 25.785156 31.90625 C 24.636719 31.863281 24.503906 31.847656 24.324219 31.734375 C 24.230469 31.675781 23.875 31.589844 23.535156 31.542969 C 23.109375 31.484375 22.820312 31.367188 22.613281 31.171875 C 22.445312 31.015625 22.050781 30.824219 21.734375 30.746094 C 21.417969 30.671875 20.824219 30.429688 20.414062 30.207031 C 20.003906 29.984375 19.28125 29.597656 18.804688 29.34375 C 18.332031 29.085938 17.726562 28.707031 17.464844 28.492188 C 17.199219 28.28125 16.667969 27.960938 16.285156 27.78125 C 15.902344 27.597656 15.394531 27.300781 15.15625 27.121094 C 14.449219 26.582031 12.960938 25.117188 12.789062 24.792969 C 11.25 21.855469 10.851562 21.003906 10.808594 20.550781 C 10.78125 20.273438 10.703125 19.941406 10.636719 19.816406 C 10.570312 19.691406 10.550781 19.554688 10.59375 19.511719 C 10.761719 19.347656 11.910156 20.917969 13.0625 22.882812 C 13.703125 23.972656 14.304688 24.664062 14.613281 24.664062 C 14.714844 24.664062 15.167969 25.015625 15.625 25.445312 C 16.652344 26.414062 16.960938 26.625 17.828125 26.957031 C 18.957031 27.390625 19.617188 27.761719 20.152344 28.265625 C 21.222656 29.273438 21.933594 29.589844 22.792969 29.453125 C 23.316406 29.367188 25.097656 30.046875 26.503906 30.867188 C 29.300781 32.5 29.871094 32.515625 29.824219 30.964844 C 29.808594 30.488281 29.851562 30.117188 29.933594 30.035156 C 30.117188 29.851562 30.097656 29.242188 29.898438 28.957031 C 29.804688 28.828125 29.46875 28.605469 29.152344 28.46875 C 28.507812 28.191406 28.449219 28.066406 28.488281 27.097656 C 28.519531 26.394531 28.375 26.222656 27.652344 26.101562 C 27.410156 26.058594 27.125 25.929688 27.019531 25.8125 C 26.910156 25.691406 26.425781 25.429688 25.945312 25.234375 C 23.171875 24.089844 23.003906 23.976562 22.589844 23.015625 C 22.453125 22.691406 22.167969 22.234375 21.957031 22 C 21.535156 21.527344 21.210938 20.941406 20.988281 20.242188 C 20.910156 19.988281 20.621094 19.34375 20.347656 18.804688 C 19.742188 17.617188 19.648438 17.035156 19.558594 13.980469 L 19.496094 11.738281 L 19.8125 11.105469 C 20.0625 10.601562 20.230469 10.425781 20.644531 10.222656 C 20.929688 10.085938 21.273438 9.96875 21.410156 9.964844 C 21.757812 9.957031 22.023438 9.65625 22.023438 9.269531 C 22.023438 9.011719 22.09375 8.921875 22.378906 8.820312 C 22.773438 8.683594 22.941406 8.734375 22.941406 8.992188 C 22.941406 9.082031 23.148438 9.382812 23.402344 9.65625 C 23.652344 9.929688 23.859375 10.265625 23.859375 10.402344 C 23.859375 10.679688 23.046875 11.25 22.335938 11.46875 C 22.097656 11.542969 21.851562 11.667969 21.789062 11.742188 C 21.726562 11.820312 21.515625 12.652344 21.320312 13.589844 C 20.863281 15.777344 20.886719 16.558594 21.417969 17.109375 C 21.78125 17.484375 22.234375 18.546875 22.882812 20.527344 C 23.058594 21.066406 23.285156 21.601562 23.386719 21.71875 C 23.640625 22.007812 24.136719 22.25 24.472656 22.25 C 24.625 22.25 24.871094 22.347656 25.023438 22.464844 C 25.175781 22.582031 25.425781 22.71875 25.585938 22.769531 C 25.742188 22.816406 26.136719 23.09375 26.460938 23.386719 C 26.785156 23.679688 27.347656 24.097656 27.710938 24.320312 C 28.074219 24.542969 28.636719 25.003906 28.960938 25.34375 C 29.285156 25.6875 29.789062 26.207031 30.082031 26.5 C 30.375 26.792969 30.855469 27.421875 31.144531 27.902344 C 31.792969 28.96875 31.925781 29.082031 32.503906 29.082031 C 33.273438 29.082031 33.605469 28.453125 33.222656 27.722656 C 33.09375 27.472656 33.082031 27.351562 33.179688 27.234375 C 33.257812 27.140625 33.289062 26.863281 33.253906 26.5625 C 33.214844 26.214844 33.253906 25.972656 33.371094 25.804688 C 33.480469 25.644531 33.574219 25.105469 33.632812 24.277344 C 33.683594 23.574219 33.832031 22.378906 33.96875 21.621094 C 34.101562 20.863281 34.285156 19.835938 34.371094 19.34375 C 34.457031 18.847656 34.59375 18.367188 34.675781 18.273438 C 35.1875 17.65625 36.695312 17.382812 37.808594 17.703125 C 38.417969 17.882812 38.480469 17.933594 38.691406 18.421875 C 38.816406 18.710938 39.070312 19.703125 39.261719 20.628906 C 39.488281 21.730469 39.667969 22.355469 39.792969 22.449219 C 39.929688 22.550781 39.960938 22.695312 39.910156 23.007812 C 39.835938 23.464844 40.316406 25.96875 40.527344 26.222656 C 40.613281 26.328125 40.617188 26.5625 40.527344 27.03125 C 40.277344 28.382812 40.433594 29.003906 41.0625 29.183594 C 41.753906 29.382812 41.976562 29.226562 42.496094 28.175781 C 42.910156 27.339844 43.035156 27.1875 43.40625 27.042969 C 43.703125 26.925781 43.90625 26.738281 44.066406 26.429688 C 44.191406 26.1875 44.519531 25.773438 44.792969 25.515625 C 45.398438 24.941406 46.941406 23.746094 47.074219 23.746094 C 47.128906 23.746094 47.410156 23.539062 47.703125 23.285156 C 47.992188 23.035156 48.371094 22.796875 48.542969 22.761719 C 49.359375 22.589844 50.367188 22.316406 50.570312 22.214844 C 50.890625 22.054688 51.148438 21.726562 51.632812 20.875 C 52.148438 19.957031 53.742188 18.175781 54.300781 17.890625 C 54.9375 17.5625 55.160156 17.25 55.863281 15.703125 C 56.394531 14.53125 56.632812 14.152344 57.132812 13.664062 C 57.566406 13.234375 57.785156 12.914062 57.871094 12.570312 C 58.183594 11.367188 58.664062 10.078125 59.625 7.890625 C 60.191406 6.59375 60.859375 5.070312 61.101562 4.507812 C 61.542969 3.488281 61.917969 2.949219 62.183594 2.949219 C 62.257812 2.949219 62.410156 3.234375 62.519531 3.582031 M 67.84375 48.011719 C 68.027344 48.195312 68.023438 48.574219 67.839844 48.496094 C 67.757812 48.464844 67.601562 48.3125 67.488281 48.15625 C 67.289062 47.882812 67.289062 47.875 67.492188 47.875 C 67.609375 47.875 67.769531 47.9375 67.84375 48.011719 "/><path style=" stroke:none;fill-rule:evenodd;fill:#f4f6f1;fill-opacity:1;" d="M 88.121094 72.84375 C 88.3125 72.792969 89.132812 71.75 89.132812 71.558594 C 89.132812 71.5 89.316406 71.050781 89.539062 70.550781 C 90 69.539062 90.335938 68.78125 90.558594 68.269531 C 90.640625 68.078125 90.839844 67.640625 91.003906 67.292969 C 91.277344 66.703125 91.476562 66.230469 91.820312 65.394531 C 91.980469 65 92.394531 63.671875 92.582031 62.945312 C 92.671875 62.582031 92.886719 62.273438 93.371094 61.796875 C 93.910156 61.265625 94.125 60.929688 94.53125 59.996094 C 95.140625 58.589844 95.421875 58.140625 95.800781 57.984375 C 96.585938 57.65625 98.269531 55.726562 99.117188 54.1875 C 99.238281 53.960938 99.429688 53.703125 99.539062 53.609375 C 99.734375 53.449219 100.613281 53.207031 101.433594 53.085938 C 101.675781 53.050781 102.078125 52.835938 102.410156 52.566406 C 102.722656 52.316406 103.261719 51.929688 103.609375 51.707031 C 103.957031 51.484375 104.292969 51.238281 104.355469 51.164062 C 104.417969 51.089844 104.789062 50.78125 105.179688 50.476562 C 105.566406 50.171875 106.070312 49.648438 106.292969 49.308594 C 106.59375 48.855469 106.785156 48.683594 107.011719 48.65625 C 107.277344 48.625 107.398438 48.46875 107.816406 47.644531 C 108.394531 46.5 108.5625 46.34375 108.890625 46.667969 C 109.105469 46.886719 109.113281 46.957031 108.988281 47.957031 C 108.875 48.863281 108.882812 49.082031 109.035156 49.453125 C 109.394531 50.316406 109.636719 51.761719 109.503906 52.253906 C 109.394531 52.667969 109.410156 52.738281 109.714844 53.121094 C 109.894531 53.347656 110.042969 53.636719 110.042969 53.765625 C 110.042969 53.890625 110.148438 54.464844 110.277344 55.039062 C 110.804688 57.4375 111.035156 57.847656 111.957031 58.070312 C 113.074219 58.34375 113.367188 58.355469 114.160156 58.160156 C 115.574219 57.816406 115.894531 57.460938 116.128906 55.988281 C 116.191406 55.601562 116.351562 54.636719 116.488281 53.847656 C 116.621094 53.058594 116.773438 51.859375 116.824219 51.1875 C 116.890625 50.359375 116.984375 49.863281 117.113281 49.664062 C 117.257812 49.441406 117.289062 49.242188 117.234375 48.863281 C 117.171875 48.46875 117.195312 48.347656 117.335938 48.292969 C 117.59375 48.195312 117.550781 47.644531 117.265625 47.339844 C 117.0625 47.121094 117.042969 47.046875 117.164062 46.902344 C 117.53125 46.457031 117.949219 46.796875 118.578125 48.046875 C 118.675781 48.238281 118.945312 48.574219 119.179688 48.796875 C 119.410156 49.015625 119.738281 49.351562 119.90625 49.539062 C 120.542969 50.261719 121.386719 51.011719 122.121094 51.5 C 122.964844 52.0625 123.601562 52.664062 123.601562 52.894531 C 123.601562 52.992188 123.757812 53.042969 124.046875 53.042969 C 124.292969 53.042969 124.554688 53.117188 124.628906 53.210938 C 124.703125 53.300781 124.929688 53.40625 125.132812 53.445312 C 126.140625 53.644531 126.207031 53.734375 126.878906 55.6875 C 127.597656 57.785156 127.761719 58.148438 128.167969 58.578125 C 128.558594 58.988281 128.566406 59.019531 128.511719 59.726562 C 128.457031 60.367188 128.074219 62.398438 127.898438 62.957031 C 127.863281 63.070312 127.464844 63.339844 127.011719 63.558594 C 125.816406 64.136719 125.613281 64.339844 125.613281 64.945312 C 125.613281 65.363281 125.679688 65.511719 126.035156 65.878906 C 126.269531 66.117188 126.515625 66.457031 126.578125 66.632812 C 126.730469 67.03125 126.921875 67.105469 127.550781 67.011719 C 128.167969 66.921875 128.542969 66.589844 128.542969 66.136719 C 128.542969 65.84375 128.582031 65.796875 128.863281 65.796875 C 129.203125 65.796875 130.074219 65.300781 130.394531 64.925781 C 130.496094 64.804688 130.671875 64.460938 130.785156 64.15625 C 131.160156 63.144531 130.832031 57.207031 130.363281 56.644531 C 130.191406 56.4375 129.347656 54.679688 129.347656 54.527344 C 129.347656 54.292969 128.777344 53.304688 128.328125 52.761719 C 128.070312 52.453125 127.832031 52.058594 127.792969 51.886719 C 127.710938 51.503906 127.027344 50.824219 126.417969 50.507812 C 126.164062 50.378906 125.386719 50.039062 124.691406 49.753906 C 123.980469 49.460938 123.328125 49.117188 123.199219 48.960938 C 123.039062 48.773438 122.824219 48.675781 122.507812 48.652344 L 122.050781 48.621094 L 122.015625 47.820312 C 121.976562 46.882812 121.859375 46.710938 120.988281 46.296875 C 120.355469 45.996094 120.257812 45.824219 120.570312 45.566406 C 120.722656 45.4375 120.742188 45.269531 120.679688 44.582031 C 120.636719 44.109375 120.652344 43.726562 120.710938 43.691406 C 120.863281 43.597656 121.808594 44.035156 122.683594 44.605469 C 123.3125 45.015625 123.96875 45.332031 125.382812 45.914062 C 125.507812 45.964844 125.832031 46.097656 126.097656 46.210938 C 126.453125 46.359375 126.742188 46.394531 127.171875 46.34375 C 127.933594 46.253906 128.273438 46.398438 129.3125 47.273438 C 130.292969 48.089844 130.734375 48.371094 131.355469 48.5625 C 131.609375 48.640625 131.867188 48.75 131.925781 48.808594 C 131.984375 48.863281 132.105469 48.90625 132.1875 48.90625 C 132.425781 48.90625 133.003906 49.34375 133.851562 50.164062 C 134.300781 50.59375 134.828125 50.980469 135.109375 51.085938 C 135.53125 51.242188 135.679688 51.40625 136.3125 52.414062 C 136.710938 53.042969 137.117188 53.714844 137.210938 53.90625 C 137.308594 54.097656 137.503906 54.386719 137.648438 54.550781 C 137.789062 54.71875 138.085938 55.117188 138.308594 55.4375 C 138.558594 55.808594 138.90625 56.132812 139.242188 56.316406 C 139.824219 56.632812 140.492188 57.3125 140.492188 57.589844 C 140.492188 57.789062 141.144531 58.214844 141.453125 58.214844 C 141.636719 58.214844 141.660156 58.152344 141.605469 57.808594 C 141.558594 57.523438 141.328125 57.171875 140.832031 56.632812 C 139.996094 55.722656 139.570312 54.945312 139.570312 54.332031 C 139.570312 53.753906 137.8125 50.332031 137.085938 49.503906 C 136.417969 48.738281 134.765625 47.449219 133.828125 46.964844 C 133.417969 46.753906 132.925781 46.433594 132.734375 46.257812 C 132.546875 46.078125 132.207031 45.855469 131.984375 45.761719 C 131.757812 45.667969 131.132812 45.335938 130.589844 45.023438 C 129.707031 44.511719 128.402344 43.96875 128.066406 43.96875 C 127.996094 43.96875 127.761719 43.8125 127.546875 43.621094 C 127.332031 43.433594 127.066406 43.273438 126.957031 43.269531 C 126.300781 43.238281 126.121094 43.191406 125.914062 43.003906 C 125.769531 42.871094 125.601562 42.824219 125.449219 42.871094 C 125.320312 42.914062 124.851562 42.910156 124.40625 42.867188 L 123.601562 42.789062 L 123.601562 42.183594 C 123.601562 41.652344 123.5625 41.554688 123.289062 41.375 C 123.113281 41.261719 122.816406 41.136719 122.625 41.097656 C 122.308594 41.027344 122.28125 40.988281 122.3125 40.597656 C 122.332031 40.363281 122.457031 39.976562 122.589844 39.742188 C 122.851562 39.28125 125.039062 37.074219 125.238281 37.074219 C 125.523438 37.074219 126.15625 36.550781 126.726562 35.835938 C 127.324219 35.089844 128.078125 33.941406 128.085938 33.769531 C 128.089844 33.691406 128.695312 32.738281 129.199219 32.019531 C 129.308594 31.859375 129.632812 31.511719 129.917969 31.242188 C 130.414062 30.769531 130.421875 30.753906 130.132812 30.753906 C 129.964844 30.753906 129.710938 30.65625 129.558594 30.535156 L 129.289062 30.3125 L 129.507812 29.929688 C 130.058594 28.980469 130.261719 28.800781 130.785156 28.800781 C 131.058594 28.800781 131.363281 28.769531 131.460938 28.730469 C 131.753906 28.621094 131.675781 28.339844 131.355469 28.339844 C 131.03125 28.339844 130.957031 28.003906 131.234375 27.773438 C 131.324219 27.699219 131.515625 27.355469 131.65625 27.011719 C 131.894531 26.4375 131.960938 26.371094 132.53125 26.160156 C 132.871094 26.03125 133.238281 25.929688 133.355469 25.929688 C 133.683594 25.929688 134.882812 25.484375 135.109375 25.277344 C 135.347656 25.0625 136.28125 25.054688 137.65625 25.25 C 139.585938 25.53125 140.367188 25.515625 141.339844 25.191406 L 142.246094 24.886719 L 142.496094 25.121094 C 142.984375 25.578125 143.457031 25.390625 143.867188 24.585938 C 144.300781 23.730469 143.917969 23.375 142.851562 23.628906 C 142.347656 23.75 142.1875 23.75 142.046875 23.636719 C 141.90625 23.515625 141.8125 23.542969 141.519531 23.789062 C 141.089844 24.152344 140.957031 24.160156 140.628906 23.855469 C 140.054688 23.324219 137.226562 22.710938 135.332031 22.710938 L 134 22.710938 L 132.390625 23.515625 C 131.507812 23.960938 130.574219 24.4375 130.316406 24.578125 C 130.058594 24.722656 129.726562 24.890625 129.574219 24.953125 C 129.195312 25.105469 128.804688 25.722656 127.722656 27.851562 C 127.21875 28.84375 126.746094 29.734375 126.667969 29.832031 C 126.445312 30.113281 126.179688 30.660156 126.015625 31.183594 C 125.929688 31.453125 125.714844 31.839844 125.53125 32.046875 C 125.242188 32.367188 125.203125 32.496094 125.234375 32.988281 C 125.261719 33.46875 125.234375 33.570312 125.054688 33.605469 C 124.863281 33.644531 124.847656 33.582031 124.898438 32.917969 C 124.980469 31.828125 125.226562 31.042969 125.617188 30.617188 C 126.300781 29.871094 127.390625 28.046875 127.390625 27.648438 C 127.394531 27.550781 127.472656 27.359375 127.566406 27.222656 C 127.664062 27.085938 127.796875 26.550781 127.859375 26.03125 C 128.015625 24.800781 128.300781 23.167969 128.386719 23.027344 C 128.460938 22.90625 128.675781 20.242188 128.660156 19.597656 C 128.65625 19.367188 128.730469 19.035156 128.824219 18.851562 C 129.050781 18.417969 128.835938 18.160156 128.574219 18.546875 C 128.476562 18.6875 128.324219 18.804688 128.230469 18.804688 C 128.09375 18.804688 128.105469 18.722656 128.300781 18.394531 C 128.476562 18.097656 128.542969 17.792969 128.542969 17.265625 C 128.542969 16.84375 128.636719 16.265625 128.773438 15.875 C 128.917969 15.449219 129 14.90625 129 14.378906 C 129 13.898438 129.074219 13.371094 129.171875 13.136719 C 129.269531 12.910156 129.347656 12.589844 129.347656 12.429688 C 129.347656 12.265625 129.597656 11.765625 129.910156 11.304688 C 130.609375 10.277344 131.410156 8.8125 131.414062 8.5625 C 131.414062 8.371094 132.171875 7.679688 133.34375 6.796875 C 134.589844 5.855469 135.042969 5.34375 135.597656 4.253906 C 135.894531 3.675781 136.144531 3.054688 136.160156 2.878906 C 136.179688 2.589844 136.125 2.53125 135.691406 2.378906 C 135.039062 2.152344 134.824219 2.289062 134.742188 2.984375 C 134.703125 3.3125 134.578125 3.621094 134.417969 3.792969 C 134.15625 4.074219 133.058594 4.558594 132.691406 4.558594 C 132.371094 4.558594 131.878906 4.828125 131.808594 5.046875 C 131.773438 5.15625 131.667969 5.246094 131.578125 5.246094 C 131.488281 5.246094 131.167969 5.480469 130.867188 5.765625 C 130.566406 6.050781 130.058594 6.46875 129.730469 6.695312 C 129.261719 7.023438 129.050781 7.28125 128.691406 7.984375 C 127.734375 9.84375 127.585938 10.082031 127.265625 10.269531 C 126.964844 10.449219 126.933594 10.527344 126.933594 11.070312 C 126.933594 11.566406 126.867188 11.769531 126.558594 12.203125 L 126.1875 12.734375 L 126.128906 15.976562 C 126.078125 18.773438 126.042969 19.257812 125.875 19.515625 C 125.667969 19.835938 125.679688 20.183594 126.019531 23.472656 C 126.144531 24.6875 126.136719 24.769531 125.902344 25.230469 C 125.738281 25.554688 125.59375 25.699219 125.464844 25.675781 C 125.214844 25.628906 125.089844 24.90625 125.226562 24.300781 C 125.300781 23.980469 125.277344 23.652344 125.152344 23.167969 C 125.042969 22.746094 124.984375 22.082031 125 21.421875 C 125.023438 20.378906 124.914062 19.675781 124.582031 18.746094 C 124.496094 18.496094 124.226562 17.667969 123.988281 16.910156 C 123.75 16.152344 123.382812 15.238281 123.175781 14.878906 C 122.96875 14.519531 122.796875 14.121094 122.796875 13.988281 C 122.796875 13.828125 122.671875 13.699219 122.394531 13.585938 C 122.164062 13.488281 121.945312 13.292969 121.882812 13.128906 C 121.820312 12.96875 121.5625 12.703125 121.308594 12.53125 C 121.050781 12.363281 120.84375 12.183594 120.84375 12.132812 C 120.84375 12.003906 119.648438 11.171875 119.0625 10.890625 C 118.550781 10.644531 116.601562 9.957031 115.902344 9.777344 C 114.78125 9.488281 112.101562 9.46875 111.441406 9.75 C 111.167969 9.863281 110.824219 9.957031 110.675781 9.957031 C 110.527344 9.957031 110.171875 10.058594 109.886719 10.179688 C 109.542969 10.328125 109.226562 10.382812 108.972656 10.339844 C 108.640625 10.289062 108.507812 10.339844 108.132812 10.667969 C 107.886719 10.882812 107.460938 11.210938 107.179688 11.398438 C 106.902344 11.585938 106.4375 11.949219 106.144531 12.207031 C 105.855469 12.46875 105.464844 12.753906 105.273438 12.839844 C 105.003906 12.96875 104.855469 13.1875 104.582031 13.871094 C 104.390625 14.351562 104.070312 15 103.867188 15.3125 C 103.027344 16.621094 102.632812 17.835938 102.121094 20.644531 C 101.746094 22.714844 101.378906 24.207031 101.253906 24.164062 C 101.113281 24.121094 101.105469 19 101.246094 17.816406 C 101.320312 17.167969 101.304688 16.894531 101.15625 16.492188 C 100.964844 15.972656 100.691406 13.394531 100.558594 10.855469 C 100.503906 9.734375 100.433594 9.308594 100.265625 9.015625 C 100.0625 8.664062 99.570312 7.660156 98.589844 5.625 C 98.160156 4.722656 97.746094 4.367188 96.992188 4.246094 C 96.472656 4.160156 95.457031 4.667969 95.167969 5.15625 C 94.886719 5.632812 94.382812 5.597656 93.882812 5.0625 C 93.453125 4.609375 93.203125 4.609375 93.085938 5.066406 C 93.03125 5.289062 93.117188 5.492188 93.449219 5.949219 C 94.058594 6.78125 94.757812 7.199219 95.523438 7.199219 C 96.09375 7.199219 96.144531 7.226562 96.511719 7.6875 C 96.722656 7.957031 96.984375 8.375 97.09375 8.613281 C 97.378906 9.242188 97.75 11 97.75 11.714844 C 97.75 12.054688 97.824219 12.585938 97.917969 12.894531 C 98.382812 14.457031 98.546875 15.777344 98.542969 17.890625 C 98.535156 20.132812 98.75 21.890625 99.320312 24.320312 C 99.476562 24.984375 99.644531 25.835938 99.695312 26.214844 C 99.796875 27.019531 100.1875 28 100.628906 28.570312 C 101.195312 29.308594 101.425781 29.773438 101.421875 30.179688 C 101.421875 30.402344 101.511719 31.214844 101.621094 31.988281 C 101.777344 33.105469 101.789062 33.421875 101.675781 33.535156 C 101.496094 33.714844 101.15625 33.527344 101.097656 33.214844 C 101.074219 33.097656 100.988281 32.949219 100.910156 32.882812 C 100.765625 32.765625 100.238281 31.847656 99.753906 30.871094 C 99.613281 30.585938 99.320312 30.164062 99.101562 29.933594 C 98.886719 29.703125 98.542969 29.183594 98.34375 28.78125 C 98.140625 28.378906 97.71875 27.765625 97.398438 27.417969 C 97.082031 27.074219 96.644531 26.53125 96.429688 26.214844 C 96.214844 25.894531 95.882812 25.519531 95.691406 25.382812 C 95.34375 25.121094 94.144531 24.691406 93.097656 24.449219 C 92.78125 24.375 92.097656 24.214844 91.582031 24.089844 C 90.027344 23.710938 89.347656 23.785156 87.753906 24.515625 C 87.53125 24.613281 87.222656 24.785156 87.0625 24.890625 C 86.90625 24.996094 86.476562 25.203125 86.109375 25.351562 C 85.398438 25.632812 84.195312 26.457031 84.1875 26.664062 C 84.179688 26.890625 83.757812 27.308594 83.53125 27.308594 C 83.410156 27.308594 83.144531 27.101562 82.941406 26.851562 C 82.332031 26.089844 81.433594 26.019531 81.433594 26.730469 C 81.433594 27.453125 81.921875 27.996094 82.570312 27.996094 C 82.695312 27.996094 82.980469 28.105469 83.207031 28.238281 C 83.53125 28.429688 83.746094 28.464844 84.277344 28.425781 C 85.207031 28.351562 86.410156 28.027344 86.980469 27.695312 C 87.246094 27.539062 87.542969 27.367188 87.636719 27.3125 C 87.925781 27.148438 89.296875 26.617188 89.433594 26.617188 C 89.503906 26.617188 89.699219 26.726562 89.867188 26.859375 C 90.222656 27.140625 90.304688 27.144531 91.773438 26.988281 C 92.941406 26.863281 93.269531 26.933594 93.269531 27.304688 C 93.269531 27.433594 93.765625 27.976562 94.5 28.648438 C 96.359375 30.355469 96.617188 30.632812 96.578125 30.898438 C 96.515625 31.308594 96.230469 31.386719 95.609375 31.164062 C 94.699219 30.839844 94.386719 30.804688 94.433594 31.035156 C 94.472656 31.222656 94.871094 31.421875 96.046875 31.839844 C 96.4375 31.980469 96.59375 32.101562 96.621094 32.285156 C 96.648438 32.472656 96.722656 32.527344 96.917969 32.5 C 97.238281 32.453125 97.253906 32.65625 96.941406 32.824219 C 96.625 32.992188 96.726562 33.109375 97.351562 33.28125 C 97.710938 33.382812 97.972656 33.550781 98.171875 33.816406 C 98.332031 34.027344 98.535156 34.203125 98.617188 34.203125 C 98.703125 34.203125 99 34.5 99.28125 34.863281 C 100.328125 36.207031 101.433594 37.074219 102.109375 37.074219 C 102.871094 37.074219 103.1875 37.410156 103.539062 38.589844 C 103.683594 39.082031 103.679688 39.144531 103.492188 39.316406 C 103.300781 39.488281 103.25 39.480469 102.785156 39.191406 C 102.511719 39.019531 102.261719 38.84375 102.230469 38.800781 C 102.042969 38.550781 100.558594 37.523438 100.300781 37.460938 C 100.128906 37.421875 99.730469 37.144531 99.414062 36.84375 C 99.097656 36.542969 98.324219 36 97.691406 35.632812 C 97.058594 35.269531 96.453125 34.894531 96.347656 34.800781 C 96.238281 34.707031 95.902344 34.585938 95.597656 34.53125 C 95.097656 34.441406 93.914062 34.023438 92.757812 33.535156 C 92.433594 33.394531 91.980469 33.34375 91.148438 33.34375 C 90.070312 33.347656 89.882812 33.386719 88.386719 33.902344 C 87.5 34.207031 86.464844 34.574219 86.082031 34.71875 C 85.699219 34.859375 85.054688 35.015625 84.644531 35.0625 C 83.800781 35.15625 83.386719 35.441406 83.386719 35.925781 C 83.386719 36.257812 83.695312 36.613281 83.980469 36.613281 C 84.078125 36.613281 84.253906 36.722656 84.371094 36.851562 C 84.542969 37.042969 84.671875 37.078125 84.992188 37.023438 C 85.214844 36.984375 85.734375 36.90625 86.144531 36.855469 C 87.058594 36.738281 87.414062 36.652344 88.15625 36.390625 C 90.128906 35.6875 90.519531 35.625 91.054688 35.90625 C 91.296875 36.035156 91.816406 36.164062 92.238281 36.195312 C 92.652344 36.230469 93.222656 36.355469 93.507812 36.480469 C 94.023438 36.699219 94.796875 37.34375 94.890625 37.625 C 94.914062 37.707031 95.066406 37.78125 95.222656 37.789062 C 95.378906 37.796875 95.613281 37.886719 95.738281 37.992188 C 95.863281 38.097656 96.148438 38.191406 96.371094 38.207031 C 97.660156 38.277344 98.542969 39.078125 98.15625 39.824219 C 98.0625 40 98.019531 40.179688 98.058594 40.21875 C 98.101562 40.257812 98.378906 40.289062 98.679688 40.289062 C 99.277344 40.289062 99.453125 40.414062 99.183594 40.636719 C 99.089844 40.714844 99.011719 40.878906 99.011719 41.003906 C 99.011719 41.207031 99.070312 41.21875 99.628906 41.148438 C 100.191406 41.078125 100.25 41.09375 100.308594 41.3125 C 100.359375 41.511719 100.460938 41.554688 100.871094 41.554688 C 101.203125 41.554688 101.597656 41.675781 102.058594 41.910156 C 102.746094 42.269531 103.085938 42.363281 104.578125 42.625 C 105.265625 42.746094 105.40625 42.8125 105.589844 43.109375 C 105.757812 43.375 105.785156 43.566406 105.726562 43.96875 C 105.683594 44.25 105.65625 44.753906 105.664062 45.082031 C 105.679688 45.65625 105.667969 45.683594 105.273438 45.871094 C 104.523438 46.226562 104.222656 46.980469 104.546875 47.695312 C 104.621094 47.859375 104.648438 48.019531 104.609375 48.058594 C 104.570312 48.097656 103.941406 48.332031 103.207031 48.578125 C 102.476562 48.824219 101.527344 49.199219 101.105469 49.414062 C 99.980469 49.984375 97.675781 51.75 96.949219 52.597656 C 96.601562 53 95.867188 53.804688 95.3125 54.382812 C 94.757812 54.964844 94.300781 55.519531 94.300781 55.621094 C 94.300781 55.722656 94.085938 56.042969 93.816406 56.332031 C 93.550781 56.621094 93.175781 57.105469 92.984375 57.410156 C 92.484375 58.199219 91.699219 59.308594 91.488281 59.519531 C 91.386719 59.621094 91.171875 60 91.007812 60.367188 C 90.847656 60.730469 90.539062 61.402344 90.324219 61.855469 C 90.109375 62.308594 89.9375 62.726562 89.9375 62.785156 C 89.9375 62.9375 88.269531 67.957031 88.039062 68.5 C 87.929688 68.75 87.691406 69.148438 87.507812 69.378906 C 87.136719 69.847656 86.832031 70.609375 86.832031 71.078125 C 86.832031 71.246094 86.914062 71.652344 87.011719 71.980469 C 87.144531 72.429688 87.269531 72.617188 87.523438 72.75 C 87.707031 72.84375 87.871094 72.914062 87.890625 72.910156 C 87.910156 72.902344 88.011719 72.871094 88.121094 72.84375 M 87.46875 71.714844 C 87.28125 71.109375 87.28125 71.054688 87.476562 70.511719 C 87.589844 70.199219 87.792969 69.820312 87.933594 69.667969 C 88.367188 69.207031 88.609375 68.605469 89.53125 65.742188 C 90.785156 61.84375 91.429688 60.414062 92.691406 58.730469 C 93.117188 58.164062 93.535156 57.570312 93.625 57.417969 C 93.710938 57.261719 93.921875 57.015625 94.09375 56.867188 C 94.261719 56.722656 94.515625 56.355469 94.65625 56.058594 C 94.796875 55.757812 95.199219 55.230469 95.554688 54.882812 C 95.910156 54.535156 96.753906 53.648438 97.433594 52.90625 C 98.113281 52.167969 98.785156 51.527344 98.929688 51.484375 C 99.070312 51.4375 99.4375 51.183594 99.742188 50.914062 C 100.429688 50.316406 101.914062 49.570312 103.433594 49.058594 C 104.0625 48.84375 104.695312 48.59375 104.839844 48.5 C 105.128906 48.3125 105.183594 47.875 104.984375 47.347656 C 104.808594 46.882812 104.945312 46.632812 105.558594 46.324219 C 106.160156 46.019531 106.3125 45.722656 106.191406 45.082031 C 106.152344 44.878906 106.167969 44.503906 106.226562 44.25 C 106.355469 43.675781 106.152344 42.785156 105.820312 42.453125 C 105.660156 42.292969 105.394531 42.207031 104.953125 42.175781 C 104.601562 42.152344 104.179688 42.078125 104.011719 42.015625 C 103.84375 41.953125 103.589844 41.898438 103.445312 41.898438 C 103.300781 41.898438 102.835938 41.71875 102.410156 41.496094 C 101.972656 41.269531 101.472656 41.09375 101.25 41.09375 C 100.988281 41.09375 100.769531 41 100.574219 40.808594 C 100.417969 40.648438 100.195312 40.519531 100.082031 40.519531 C 99.96875 40.519531 99.789062 40.367188 99.683594 40.183594 C 99.558594 39.960938 99.382812 39.835938 99.167969 39.8125 C 98.894531 39.78125 98.832031 39.710938 98.777344 39.363281 C 98.6875 38.816406 98.261719 38.230469 97.816406 38.050781 C 97.621094 37.972656 97.175781 37.839844 96.828125 37.761719 C 96.480469 37.679688 96.097656 37.546875 95.972656 37.460938 C 95.847656 37.375 95.628906 37.304688 95.492188 37.304688 C 95.339844 37.304688 95.207031 37.210938 95.167969 37.082031 C 94.988281 36.519531 93.617188 35.816406 92.695312 35.8125 C 92.265625 35.808594 91.863281 35.714844 91.445312 35.519531 C 91.109375 35.363281 90.667969 35.234375 90.460938 35.234375 C 90.257812 35.234375 89.347656 35.472656 88.433594 35.761719 C 87.523438 36.054688 86.441406 36.320312 86.03125 36.351562 C 85.617188 36.386719 85.195312 36.460938 85.089844 36.515625 C 84.960938 36.582031 84.839844 36.554688 84.726562 36.441406 C 84.628906 36.347656 84.421875 36.21875 84.257812 36.15625 C 84.09375 36.097656 83.960938 35.964844 83.960938 35.871094 C 83.960938 35.773438 83.972656 35.695312 83.988281 35.695312 C 84.449219 35.691406 86.214844 35.238281 87.351562 34.832031 C 90.351562 33.753906 90.5 33.714844 91.371094 33.773438 C 91.976562 33.816406 92.492188 33.960938 93.464844 34.359375 C 94.175781 34.648438 94.964844 34.921875 95.226562 34.960938 C 95.484375 35.003906 95.882812 35.164062 96.109375 35.320312 C 96.339844 35.472656 96.996094 35.863281 97.570312 36.1875 C 98.140625 36.511719 98.859375 37.019531 99.160156 37.316406 C 99.464844 37.613281 99.851562 37.890625 100.023438 37.933594 C 100.195312 37.976562 100.714844 38.304688 101.183594 38.664062 C 102.828125 39.925781 103.089844 40.050781 103.648438 39.839844 C 104.1875 39.632812 104.261719 39.253906 103.96875 38.246094 C 103.6875 37.289062 103.308594 36.773438 102.816406 36.683594 C 102.652344 36.65625 102.316406 36.597656 102.074219 36.558594 C 101.71875 36.5 101.425781 36.285156 100.597656 35.488281 C 100.03125 34.941406 99.492188 34.347656 99.402344 34.175781 C 99.3125 34 99.171875 33.855469 99.097656 33.855469 C 99.019531 33.855469 98.761719 33.652344 98.527344 33.398438 C 98.289062 33.148438 97.964844 32.910156 97.808594 32.871094 C 97.398438 32.765625 97.019531 31.917969 97 31.074219 C 96.984375 30.230469 96.828125 29.957031 95.980469 29.296875 C 94.796875 28.375 93.9375 27.503906 93.722656 27.003906 C 93.460938 26.394531 93.234375 26.34375 91.601562 26.496094 C 90.40625 26.609375 90.339844 26.605469 90.09375 26.375 C 89.886719 26.179688 89.734375 26.144531 89.285156 26.1875 C 88.675781 26.246094 87.558594 26.6875 86.730469 27.195312 C 86.023438 27.632812 84.179688 28.082031 83.820312 27.90625 C 83.566406 27.785156 83.566406 27.78125 83.800781 27.773438 C 83.949219 27.769531 84.230469 27.519531 84.5625 27.09375 C 84.972656 26.5625 85.238281 26.351562 85.816406 26.089844 C 86.21875 25.910156 86.929688 25.558594 87.398438 25.3125 C 88.851562 24.558594 89.683594 24.289062 90.339844 24.363281 C 91.230469 24.46875 94.453125 25.308594 94.96875 25.574219 C 95.226562 25.703125 95.59375 26.003906 95.78125 26.242188 C 95.972656 26.480469 96.449219 27.0625 96.835938 27.539062 C 97.226562 28.011719 97.699219 28.710938 97.886719 29.089844 C 98.078125 29.46875 98.402344 29.957031 98.613281 30.179688 C 98.820312 30.402344 99.285156 31.125 99.644531 31.789062 C 100.003906 32.453125 100.371094 33.078125 100.460938 33.175781 C 100.550781 33.277344 100.621094 33.417969 100.621094 33.492188 C 100.621094 33.765625 101.082031 34.085938 101.476562 34.085938 C 102.023438 34.085938 102.390625 33.621094 102.285156 33.066406 C 102.246094 32.847656 102.117188 31.894531 102 30.949219 C 101.800781 29.335938 101.765625 29.207031 101.429688 28.816406 C 100.835938 28.125 100.269531 26.839844 100.15625 25.933594 C 100.097656 25.484375 100.003906 25.03125 99.945312 24.921875 C 99.820312 24.683594 99.574219 23.359375 99.25 21.199219 C 99.078125 20.074219 99.011719 19.054688 99.011719 17.621094 C 99.011719 15.578125 98.898438 14.644531 98.429688 12.835938 C 98.308594 12.367188 98.207031 11.722656 98.207031 11.402344 C 98.207031 10.78125 97.859375 9.160156 97.570312 8.421875 C 97.359375 7.890625 96.65625 6.941406 96.390625 6.835938 C 96.285156 6.792969 95.976562 6.753906 95.703125 6.75 C 95.148438 6.738281 94.699219 6.542969 94.359375 6.160156 L 94.128906 5.902344 L 94.433594 5.976562 C 94.863281 6.082031 95.363281 5.871094 95.578125 5.492188 C 95.679688 5.3125 96.003906 5.050781 96.292969 4.914062 C 96.796875 4.667969 96.835938 4.664062 97.214844 4.84375 C 97.796875 5.121094 97.886719 5.257812 98.660156 7.023438 C 99.042969 7.902344 99.457031 8.730469 99.574219 8.859375 C 99.890625 9.207031 100.019531 9.761719 100.101562 11.105469 C 100.300781 14.523438 100.488281 16.289062 100.699219 16.769531 C 100.871094 17.160156 100.875 17.304688 100.734375 18.148438 C 100.53125 19.378906 100.519531 23.164062 100.714844 23.832031 C 100.871094 24.359375 101.21875 24.554688 101.621094 24.339844 C 101.878906 24.199219 102.207031 22.976562 102.632812 20.558594 C 103.046875 18.222656 103.765625 16.179688 104.476562 15.332031 C 104.617188 15.160156 104.847656 14.683594 104.988281 14.265625 C 105.214844 13.585938 105.296875 13.476562 105.832031 13.132812 C 106.15625 12.921875 106.527344 12.632812 106.652344 12.488281 C 106.78125 12.34375 107.15625 12.054688 107.484375 11.84375 C 107.816406 11.628906 108.25 11.300781 108.445312 11.113281 C 108.71875 10.855469 108.875 10.785156 109.109375 10.832031 C 109.277344 10.867188 109.726562 10.792969 110.101562 10.671875 C 111.90625 10.082031 112.097656 10.050781 113.835938 10.105469 C 115.578125 10.160156 115.59375 10.164062 117.875 10.980469 C 119.265625 11.480469 121.085938 12.773438 121.492188 13.558594 C 121.585938 13.734375 121.8125 13.933594 122 14 C 122.238281 14.082031 122.335938 14.191406 122.335938 14.378906 C 122.335938 14.523438 122.410156 14.703125 122.503906 14.777344 C 122.746094 14.980469 123.308594 16.402344 123.878906 18.253906 C 124.539062 20.414062 124.539062 20.414062 124.523438 21.675781 C 124.515625 22.34375 124.574219 22.980469 124.675781 23.316406 C 124.800781 23.726562 124.8125 23.957031 124.722656 24.25 C 124.574219 24.738281 124.699219 25.609375 124.964844 25.9375 C 125.402344 26.476562 126.246094 26.078125 126.476562 25.222656 C 126.613281 24.726562 126.535156 22.621094 126.359375 22.023438 C 126.210938 21.503906 126.210938 20.003906 126.359375 19.722656 C 126.464844 19.527344 126.636719 15.226562 126.601562 13.691406 C 126.589844 13.128906 126.636719 13.011719 127.210938 12.207031 C 127.34375 12.015625 127.4375 11.675781 127.449219 11.316406 C 127.464844 10.828125 127.515625 10.707031 127.765625 10.554688 C 127.953125 10.441406 128.339844 9.839844 128.828125 8.902344 C 129.253906 8.078125 129.71875 7.339844 129.878906 7.226562 C 130.039062 7.117188 130.519531 6.730469 130.949219 6.367188 C 131.382812 6.003906 131.792969 5.707031 131.863281 5.707031 C 131.933594 5.707031 132.101562 5.578125 132.242188 5.417969 C 132.378906 5.257812 132.703125 5.074219 132.957031 5.007812 C 133.921875 4.757812 134.414062 4.511719 134.804688 4.082031 C 135.023438 3.835938 135.207031 3.523438 135.207031 3.378906 C 135.210938 3.039062 135.378906 2.785156 135.535156 2.882812 C 135.617188 2.933594 135.476562 3.308594 135.132812 3.960938 C 134.542969 5.082031 133.972656 5.679688 132.195312 7.046875 C 131.582031 7.519531 131.046875 8.019531 131.003906 8.15625 C 130.847656 8.671875 130.109375 10.039062 129.5 10.949219 C 129.125 11.507812 128.851562 12.046875 128.828125 12.273438 C 128.804688 12.484375 128.703125 12.976562 128.601562 13.371094 C 128.5 13.761719 128.429688 14.304688 128.445312 14.574219 C 128.457031 14.847656 128.351562 15.523438 128.210938 16.078125 C 128.0625 16.660156 127.980469 17.222656 128.019531 17.40625 C 128.0625 17.589844 128.015625 17.90625 127.910156 18.15625 C 127.734375 18.570312 127.761719 19.035156 127.960938 19.035156 C 128.273438 19.035156 128.140625 21.671875 127.726562 23.734375 C 127.59375 24.394531 127.441406 25.300781 127.386719 25.746094 C 127.210938 27.238281 126.878906 28.171875 126.246094 28.980469 C 125.929688 29.386719 125.667969 29.765625 125.667969 29.828125 C 125.667969 29.890625 125.488281 30.085938 125.265625 30.261719 C 124.808594 30.621094 124.707031 30.910156 124.472656 32.492188 C 124.269531 33.847656 124.34375 34.085938 124.96875 34.085938 C 125.613281 34.085938 125.824219 33.839844 125.75 33.175781 C 125.699219 32.722656 125.734375 32.605469 126.023438 32.277344 C 126.203125 32.070312 126.433594 31.621094 126.535156 31.28125 C 126.632812 30.9375 126.867188 30.464844 127.054688 30.230469 C 127.238281 29.996094 127.394531 29.695312 127.398438 29.5625 C 127.40625 29.273438 127.511719 29.066406 128.675781 27.066406 L 129.558594 25.554688 L 130.574219 25.039062 C 131.128906 24.757812 132.207031 24.210938 132.964844 23.824219 L 134.34375 23.121094 L 135.320312 23.140625 C 136.871094 23.164062 139.875 23.859375 140.476562 24.332031 C 140.8125 24.597656 141.269531 24.613281 141.617188 24.371094 C 141.757812 24.269531 141.96875 24.222656 142.09375 24.261719 C 142.21875 24.300781 142.578125 24.253906 142.898438 24.160156 C 143.519531 23.976562 143.59375 24.039062 143.292969 24.496094 C 143.082031 24.820312 142.878906 24.855469 142.675781 24.605469 C 142.476562 24.367188 141.984375 24.390625 141.269531 24.679688 C 140.488281 24.992188 139.652344 25.007812 137.316406 24.742188 L 135.464844 24.53125 L 134.777344 24.878906 C 134.402344 25.070312 133.667969 25.332031 133.144531 25.460938 C 131.808594 25.792969 131.628906 25.902344 131.300781 26.566406 C 131.140625 26.886719 130.921875 27.273438 130.8125 27.425781 C 130.699219 27.578125 130.609375 27.816406 130.609375 27.957031 C 130.609375 28.144531 130.519531 28.226562 130.261719 28.285156 C 129.757812 28.394531 128.96875 29.59375 128.964844 30.261719 C 128.964844 30.523438 129.027344 30.820312 129.105469 30.914062 C 129.222656 31.054688 129.164062 31.210938 128.75 31.796875 C 128.113281 32.703125 127.507812 33.660156 127.15625 34.316406 C 126.878906 34.832031 126.113281 35.847656 125.785156 36.132812 C 125.691406 36.214844 125.425781 36.371094 125.199219 36.480469 C 124.972656 36.585938 124.410156 37.050781 123.949219 37.507812 C 123.488281 37.964844 123.070312 38.335938 123.015625 38.335938 C 122.796875 38.335938 122.089844 39.460938 121.878906 40.136719 C 121.613281 41.007812 121.699219 41.390625 122.191406 41.511719 C 122.367188 41.550781 122.652344 41.660156 122.824219 41.746094 C 123.113281 41.890625 123.140625 41.957031 123.117188 42.488281 C 123.082031 43.222656 123.238281 43.351562 124.203125 43.386719 C 125.355469 43.433594 125.488281 43.449219 125.667969 43.5625 C 125.757812 43.621094 126.113281 43.707031 126.457031 43.753906 C 126.882812 43.808594 127.171875 43.925781 127.378906 44.125 C 127.542969 44.28125 127.9375 44.472656 128.253906 44.550781 C 128.570312 44.625 129.164062 44.867188 129.574219 45.089844 C 129.988281 45.308594 130.710938 45.699219 131.183594 45.953125 C 131.660156 46.210938 132.261719 46.589844 132.527344 46.800781 C 132.789062 47.015625 133.320312 47.335938 133.703125 47.515625 C 134.085938 47.699219 134.59375 47.992188 134.832031 48.175781 C 135.539062 48.714844 137.03125 50.175781 137.199219 50.5 C 138.738281 53.441406 139.136719 54.292969 139.183594 54.746094 C 139.210938 55.023438 139.285156 55.355469 139.355469 55.480469 C 139.421875 55.605469 139.441406 55.742188 139.398438 55.78125 C 139.230469 55.945312 138.082031 54.378906 136.925781 52.414062 C 136.289062 51.324219 135.6875 50.632812 135.378906 50.632812 C 135.277344 50.632812 134.820312 50.28125 134.367188 49.851562 C 133.339844 48.882812 133.027344 48.671875 132.160156 48.339844 C 131.03125 47.90625 130.375 47.535156 129.835938 47.03125 C 128.765625 46.023438 128.058594 45.707031 127.199219 45.84375 C 126.675781 45.929688 124.890625 45.25 123.484375 44.429688 C 120.691406 42.796875 120.121094 42.78125 120.167969 44.332031 C 120.179688 44.808594 120.136719 45.179688 120.058594 45.261719 C 119.871094 45.445312 119.890625 46.050781 120.09375 46.339844 C 120.183594 46.46875 120.519531 46.691406 120.835938 46.828125 C 121.480469 47.101562 121.542969 47.230469 121.5 48.199219 C 121.472656 48.902344 121.617188 49.074219 122.335938 49.195312 C 122.578125 49.234375 122.863281 49.367188 122.972656 49.484375 C 123.078125 49.605469 123.5625 49.863281 124.046875 50.0625 C 126.820312 51.207031 126.984375 51.316406 127.398438 52.28125 C 127.539062 52.605469 127.824219 53.0625 128.035156 53.296875 C 128.457031 53.765625 128.777344 54.351562 129 55.054688 C 129.082031 55.308594 129.371094 55.953125 129.644531 56.492188 C 130.246094 57.679688 130.34375 58.261719 130.429688 61.316406 L 130.492188 63.558594 L 130.179688 64.191406 C 129.925781 64.695312 129.761719 64.871094 129.347656 65.074219 C 129.0625 65.210938 128.714844 65.328125 128.578125 65.332031 C 128.230469 65.339844 127.96875 65.640625 127.96875 66.023438 C 127.96875 66.285156 127.894531 66.375 127.609375 66.476562 C 127.214844 66.613281 127.046875 66.5625 127.046875 66.304688 C 127.046875 66.214844 126.839844 65.914062 126.589844 65.640625 C 126.335938 65.363281 126.128906 65.03125 126.128906 64.894531 C 126.128906 64.617188 126.941406 64.046875 127.652344 63.828125 C 127.890625 63.753906 128.136719 63.628906 128.199219 63.554688 C 128.265625 63.476562 128.476562 62.644531 128.671875 61.707031 C 129.125 59.519531 129.101562 58.738281 128.570312 58.1875 C 128.210938 57.8125 127.753906 56.75 127.109375 54.769531 C 126.933594 54.230469 126.703125 53.695312 126.601562 53.578125 C 126.347656 53.289062 125.855469 53.042969 125.519531 53.042969 C 125.367188 53.042969 125.117188 52.949219 124.964844 52.832031 C 124.816406 52.710938 124.5625 52.578125 124.40625 52.527344 C 124.246094 52.480469 123.851562 52.203125 123.527344 51.910156 C 123.203125 51.617188 122.640625 51.199219 122.28125 50.976562 C 121.917969 50.753906 121.355469 50.292969 121.03125 49.953125 C 120.707031 49.609375 120.199219 49.089844 119.90625 48.796875 C 119.613281 48.503906 119.136719 47.871094 118.84375 47.394531 C 118.199219 46.328125 118.0625 46.214844 117.484375 46.214844 C 116.71875 46.214844 116.386719 46.84375 116.765625 47.574219 C 116.898438 47.824219 116.90625 47.941406 116.808594 48.0625 C 116.730469 48.15625 116.703125 48.433594 116.734375 48.730469 C 116.773438 49.082031 116.738281 49.320312 116.621094 49.492188 C 116.507812 49.648438 116.414062 50.191406 116.355469 51.019531 C 116.308594 51.722656 116.15625 52.917969 116.023438 53.675781 C 115.886719 54.433594 115.707031 55.460938 115.617188 55.953125 C 115.53125 56.445312 115.394531 56.929688 115.316406 57.023438 C 114.804688 57.640625 113.292969 57.914062 112.183594 57.59375 C 111.570312 57.414062 111.507812 57.363281 111.296875 56.875 C 111.175781 56.585938 110.917969 55.59375 110.730469 54.667969 C 110.503906 53.566406 110.320312 52.9375 110.199219 52.847656 C 110.058594 52.746094 110.027344 52.601562 110.078125 52.289062 C 110.152344 51.832031 109.671875 49.328125 109.464844 49.074219 C 109.375 48.96875 109.375 48.734375 109.460938 48.261719 C 109.710938 46.914062 109.554688 46.292969 108.929688 46.109375 C 108.234375 45.914062 108.015625 46.066406 107.492188 47.121094 C 107.078125 47.957031 106.957031 48.109375 106.582031 48.253906 C 106.285156 48.371094 106.082031 48.558594 105.925781 48.867188 C 105.800781 49.109375 105.472656 49.523438 105.199219 49.78125 C 104.59375 50.355469 103.046875 51.550781 102.914062 51.550781 C 102.863281 51.550781 102.578125 51.757812 102.289062 52.011719 C 101.996094 52.261719 101.617188 52.5 101.449219 52.535156 C 100.628906 52.707031 99.621094 52.976562 99.417969 53.078125 C 99.101562 53.242188 98.839844 53.566406 98.359375 54.421875 C 97.839844 55.339844 96.25 57.121094 95.691406 57.40625 C 95.054688 57.734375 94.832031 58.046875 94.125 59.59375 C 93.59375 60.761719 93.359375 61.140625 92.859375 61.632812 C 92.421875 62.0625 92.207031 62.378906 92.117188 62.726562 C 91.808594 63.929688 91.324219 65.21875 90.367188 67.40625 C 89.796875 68.703125 89.132812 70.222656 88.886719 70.789062 C 88.445312 71.804688 88.070312 72.347656 87.804688 72.347656 C 87.730469 72.347656 87.578125 72.0625 87.46875 71.714844 M 82.144531 27.285156 C 81.960938 27.101562 81.96875 26.722656 82.152344 26.796875 C 82.230469 26.832031 82.386719 26.984375 82.5 27.140625 C 82.699219 27.414062 82.699219 27.421875 82.496094 27.421875 C 82.378906 27.421875 82.222656 27.359375 82.144531 27.285156 "/></g></svg>