<svg xmlns="http://www.w3.org/2000/svg" xmlns:xlink="http://www.w3.org/1999/xlink" width="160" zoomAndPan="magnify" viewBox="0 0 120 119.999999" height="160" preserveAspectRatio="xMidYMid meet" version="1.2"><defs><clipPath id="2e2a19b238"><path d="M 54.707031 37.765625 L 62.671875 37.765625 L 62.671875 41.699219 L 54.707031 41.699219 Z M 54.707031 37.765625 "/></clipPath></defs><g id="b604072766"><path style=" stroke:none;fill-rule:nonzero;fill:#d7bcd0;fill-opacity:1;" d="M 33.566406 97.261719 C 33.269531 96.527344 33.554688 95.886719 33.699219 95.246094 C 33.863281 94.519531 34.070312 93.804688 34.253906 93.082031 C 34.277344 92.992188 34.316406 92.867188 34.277344 92.800781 C 33.808594 92.046875 34.257812 91.425781 34.539062 90.773438 C 34.609375 90.601562 34.640625 90.394531 34.4375 90.238281 C 33.980469 90.1875 33.984375 90.835938 33.519531 90.847656 C 33.472656 90.503906 33.695312 90.257812 33.808594 89.984375 C 33.960938 89.625 34.125 89.277344 33.832031 88.902344 C 33.78125 88.835938 33.742188 88.710938 33.769531 88.636719 C 34.304688 87.070312 34.0625 85.414062 34.335938 83.804688 C 34.625 82.09375 35.164062 80.414062 35.171875 78.644531 C 35.175781 77.976562 35.324219 77.265625 35.722656 76.664062 C 35.761719 76.605469 35.824219 76.535156 35.816406 76.472656 C 35.695312 74.769531 37.050781 73.828125 37.808594 72.578125 C 38.167969 71.984375 38.539062 71.410156 39.167969 71.035156 C 39.554688 70.804688 39.503906 70.308594 39.582031 69.917969 C 39.765625 68.976562 39.90625 68.027344 40.074219 67.082031 C 40.226562 66.207031 40.175781 66.160156 39.292969 66.382812 C 39.183594 66.410156 39.070312 66.449219 38.960938 66.484375 C 38.882812 66.96875 39.113281 67.355469 39.265625 67.75 C 39.441406 68.207031 39.382812 68.519531 38.886719 68.730469 C 38.347656 68.960938 38.277344 69.519531 38.015625 69.96875 C 37.503906 70.851562 37.703125 72.105469 36.628906 72.679688 C 36.46875 72.765625 36.375 72.914062 36.402344 73.097656 C 36.5 73.75 36.15625 74.246094 35.855469 74.765625 C 34.960938 76.304688 34.066406 77.839844 33.1875 79.382812 C 32.871094 79.9375 32.4375 80.316406 31.800781 80.4375 C 31.214844 80.546875 30.765625 80.925781 30.28125 81.230469 C 28.644531 82.257812 26.804688 82.871094 25.148438 83.851562 C 24.910156 83.992188 24.640625 83.976562 24.375 83.984375 C 21.597656 84.078125 18.929688 83.492188 16.269531 82.773438 C 15.539062 82.578125 14.855469 82.453125 14.328125 81.824219 C 14.050781 81.5 13.601562 81.667969 13.273438 81.910156 C 13.007812 82.109375 12.769531 82.34375 12.46875 82.601562 C 12.195312 82.066406 11.902344 81.957031 11.34375 82.25 C 10.886719 82.484375 10.285156 82.476562 9.742188 82.5 C 9.316406 82.519531 9.167969 82.203125 9.21875 81.8125 C 9.308594 81.121094 9.8125 80.621094 10.089844 80.015625 C 10.230469 79.710938 11.226562 79.804688 11.367188 80.128906 C 11.644531 80.757812 12.097656 80.707031 12.554688 80.472656 C 14.335938 79.566406 16.195312 79.617188 18.101562 79.933594 C 19.5625 80.175781 21.066406 80.117188 22.523438 80.429688 C 22.632812 80.453125 22.789062 80.433594 22.867188 80.367188 C 24.300781 79.164062 26.164062 79.140625 27.8125 78.53125 C 28.292969 78.355469 28.804688 78.242188 28.945312 77.652344 C 29.113281 76.953125 29.300781 76.289062 29.953125 75.84375 C 30.238281 75.644531 29.988281 75.257812 30.140625 75 C 29.753906 74.777344 29.292969 75.023438 29.007812 74.605469 C 29.835938 74.101562 31.101562 75.085938 31.660156 73.855469 C 32.035156 73.03125 33.121094 72.472656 32.609375 71.289062 C 32.199219 71.003906 31.6875 70.960938 31.152344 71.015625 C 31.171875 70.917969 31.171875 70.84375 31.191406 70.835938 C 32.214844 70.515625 32.640625 69.644531 33.226562 68.847656 C 34.269531 67.421875 35.003906 65.832031 35.949219 64.359375 C 36.367188 63.710938 36.933594 63.171875 37.371094 62.558594 C 37.945312 61.746094 38.632812 61.253906 39.5625 61.023438 C 39.695312 60.988281 39.847656 60.894531 39.914062 60.78125 C 40.699219 59.496094 42.097656 58.839844 43.039062 57.730469 C 43.710938 56.941406 43.996094 55.910156 44.347656 54.941406 C 44.457031 54.640625 44.246094 54.4375 43.921875 54.417969 C 43.582031 54.398438 43.265625 54.316406 42.957031 54.167969 C 41.898438 53.652344 41.730469 53.28125 42.085938 52.167969 C 42.28125 51.546875 42.152344 51.355469 41.496094 51.445312 C 40.933594 51.523438 40.394531 51.441406 39.847656 51.355469 C 39.515625 51.304688 39.191406 51.21875 38.871094 51.40625 C 38.65625 51.527344 38.394531 51.515625 38.300781 51.296875 C 38.054688 50.738281 37.574219 50.765625 37.136719 50.828125 C 36.378906 50.933594 35.824219 50.640625 35.367188 50.09375 C 35.054688 49.714844 34.667969 49.550781 34.1875 49.496094 C 33.117188 49.382812 32.191406 48.871094 31.273438 48.363281 C 30.222656 47.78125 29.230469 47.09375 28.101562 46.660156 C 27.992188 46.617188 27.84375 46.585938 27.785156 46.5 C 26.984375 45.324219 25.59375 45.058594 24.496094 44.335938 C 22.984375 43.339844 21.601562 42.199219 20.371094 40.832031 C 19.175781 39.511719 18.539062 37.949219 17.769531 36.410156 C 17.390625 35.652344 16.964844 34.894531 16.546875 34.144531 C 16.394531 33.871094 16.226562 33.585938 16.277344 33.261719 C 16.464844 32.128906 15.871094 31.269531 15.261719 30.445312 C 14.785156 29.792969 14.296875 29.136719 13.597656 28.664062 C 13.160156 28.367188 13.246094 27.757812 13.070312 27.300781 C 12.996094 27.105469 13.292969 26.90625 13.445312 27.050781 C 13.847656 27.429688 14.488281 27.480469 14.722656 28.128906 C 15.019531 28.960938 15.609375 29.605469 16.445312 29.964844 C 17.058594 30.230469 17.539062 30.640625 17.929688 31.179688 C 18.988281 32.664062 20.125 34.082031 20.996094 35.707031 C 21.371094 36.402344 21.84375 37.085938 22.273438 37.773438 C 22.53125 38.183594 22.941406 38.480469 23.355469 38.5625 C 23.941406 38.675781 24.269531 39.042969 24.640625 39.410156 C 25.699219 40.453125 26.675781 41.59375 28.144531 42.117188 C 28.648438 42.296875 29.164062 42.527344 29.65625 42.675781 C 30.996094 43.070312 31.9375 43.992188 32.882812 44.882812 C 33.941406 45.875 34.980469 46.617188 36.53125 46.113281 C 36.953125 45.976562 37.425781 46.253906 37.84375 46.417969 C 40.0625 47.273438 42.3125 48.09375 44.207031 49.582031 C 44.863281 50.097656 45.691406 50.082031 46.367188 50.507812 C 46.695312 50.71875 46.816406 50.378906 46.832031 50.09375 C 46.867188 49.515625 46.820312 48.945312 46.726562 48.371094 C 46.664062 48 46.523438 47.609375 47.066406 47.335938 C 47.488281 47.121094 47.234375 46.707031 47 46.417969 C 46.726562 46.082031 46.296875 46.027344 45.917969 45.878906 C 44.597656 45.359375 44.1875 44.453125 44.722656 43.136719 C 44.949219 42.582031 44.628906 42.402344 44.242188 42.203125 C 43.792969 41.972656 43.320312 42.003906 42.796875 42.117188 C 42.742188 41.398438 42.1875 41.242188 41.679688 41.03125 C 40.109375 40.371094 38.5 39.777344 36.976562 39.019531 C 35.96875 38.519531 35.445312 37.503906 35.042969 36.472656 C 34.957031 36.25 34.9375 35.992188 34.726562 35.847656 C 33.933594 35.28125 33.519531 34.445312 33.144531 33.59375 C 32.605469 32.386719 32.261719 31.058594 31.546875 29.976562 C 30.445312 28.304688 30.472656 26.492188 30.414062 24.652344 C 30.359375 23.019531 30.378906 21.378906 30.214844 19.757812 C 30.117188 18.808594 30.226562 17.976562 30.609375 17.113281 C 31.234375 15.703125 32.335938 15.046875 33.792969 14.855469 C 34 14.828125 34.230469 14.894531 34.40625 14.726562 C 33.859375 14.035156 33.960938 13.558594 34.761719 13.199219 C 35.132812 13.035156 35.53125 12.882812 35.929688 12.84375 C 36.441406 12.796875 36.980469 12.851562 36.976562 13.59375 C 36.976562 14.136719 37.445312 14.375 37.761719 14.644531 C 38.964844 15.664062 38.957031 16.714844 37.675781 17.578125 C 36.96875 18.050781 36.21875 18.417969 35.40625 18.660156 C 35.070312 18.761719 34.882812 18.902344 34.8125 19.332031 C 34.527344 21 34.152344 22.65625 33.820312 24.316406 C 33.617188 25.347656 33.90625 26.21875 34.757812 26.863281 C 35.105469 27.125 35.257812 27.492188 35.390625 27.882812 C 36.039062 29.742188 36.679688 31.605469 37.347656 33.457031 C 37.652344 34.304688 38.359375 34.710938 39.257812 34.652344 C 39.65625 34.625 39.90625 34.941406 40.1875 35.144531 C 40.683594 35.5 41.15625 35.8125 41.742188 35.234375 C 42.019531 36.96875 43.617188 37.230469 44.628906 38.125 C 45.585938 38.96875 46.769531 39.582031 47.457031 40.71875 C 47.757812 41.21875 48.066406 41.695312 48.683594 41.863281 C 48.929688 41.929688 49.035156 42.175781 49.167969 42.378906 C 49.753906 43.285156 50.394531 44.160156 50.859375 45.144531 C 51.097656 45.652344 51.539062 45.800781 52.066406 45.582031 C 52.515625 45.394531 52.539062 45.023438 52.476562 44.613281 C 52.4375 44.367188 52.230469 44.273438 52.066406 44.136719 C 51.628906 43.785156 51.605469 43.378906 52.0625 43.070312 C 52.484375 42.785156 52.480469 42.46875 52.296875 42.085938 C 52.054688 41.578125 52.082031 41.148438 52.515625 40.726562 C 52.855469 40.386719 52.839844 39.886719 52.878906 39.433594 C 52.917969 39.003906 52.988281 38.570312 52.960938 38.140625 C 52.875 36.667969 53.3125 35.246094 53.554688 33.828125 C 53.820312 32.28125 53.949219 30.699219 54.316406 29.164062 C 54.484375 28.449219 54.914062 28.003906 55.558594 27.683594 C 57.347656 26.792969 59.171875 26.835938 61.007812 27.433594 C 62.023438 27.765625 62.390625 28.6875 62.613281 29.597656 C 63.003906 31.179688 63.289062 32.789062 63.609375 34.386719 C 63.6875 34.773438 63.785156 35.105469 64.191406 35.308594 C 64.523438 35.472656 64.671875 35.902344 64.496094 36.183594 C 64.03125 36.921875 64.3125 37.632812 64.464844 38.339844 C 64.691406 39.40625 64.722656 40.53125 65.382812 41.480469 C 65.546875 41.714844 65.554688 42.035156 65.433594 42.320312 C 65.074219 43.183594 65.167969 44.105469 65.089844 45.003906 C 65.027344 45.757812 65.691406 45.746094 66.109375 45.890625 C 66.527344 46.03125 66.644531 45.601562 66.757812 45.285156 C 67.058594 44.441406 67.527344 43.683594 67.972656 42.914062 C 68.144531 42.617188 68.359375 42.347656 68.761719 42.386719 C 69.171875 42.429688 69.386719 42.175781 69.539062 41.859375 C 70.042969 40.8125 70.847656 40.042969 71.761719 39.351562 C 72.953125 38.460938 74.085938 37.484375 75.371094 36.722656 C 75.769531 36.488281 75.972656 36.03125 76.398438 35.824219 C 76.800781 35.632812 77.105469 35.128906 77.671875 35.484375 C 77.746094 35.53125 77.9375 35.414062 78.0625 35.347656 C 78.53125 35.089844 79.003906 34.972656 79.558594 34.953125 C 80.242188 34.925781 80.808594 34.5 81.144531 33.851562 C 81.855469 32.476562 82.6875 31.183594 83.765625 30.074219 C 84.652344 29.160156 85.339844 28.046875 86.632812 27.53125 C 87.078125 27.351562 87.523438 26.851562 87.765625 26.285156 C 88.324219 24.984375 88.9375 23.703125 89.527344 22.414062 C 89.75 21.921875 90.101562 21.566406 90.554688 21.253906 C 91.238281 20.78125 91.75 20.058594 91.921875 19.285156 C 92.714844 15.730469 94.375 12.523438 95.804688 9.21875 C 96.332031 8.011719 96.957031 6.847656 97.390625 5.59375 C 97.574219 5.070312 97.972656 4.609375 98.316406 4.15625 C 98.605469 3.777344 98.902344 3.417969 99.503906 3.523438 C 100.144531 3.640625 100.378906 4.113281 100.535156 4.597656 C 101.023438 6.09375 100.9375 7.492188 99.863281 8.78125 C 98.761719 10.101562 98.363281 11.773438 97.832031 13.367188 C 97.113281 15.53125 96.417969 17.707031 95.730469 19.878906 C 95.460938 20.734375 94.914062 21.46875 94.644531 22.296875 C 93.824219 24.832031 91.765625 26.558594 90.523438 28.816406 C 90.328125 29.167969 90.058594 29.496094 89.757812 29.765625 C 89.269531 30.203125 88.796875 30.605469 88.804688 31.347656 C 88.804688 31.605469 88.574219 31.816406 88.363281 31.984375 C 86.988281 33.09375 85.894531 34.46875 84.710938 35.765625 C 83.722656 36.847656 82.710938 37.910156 81.40625 38.632812 C 81.300781 38.6875 81.191406 38.753906 81.109375 38.835938 C 78.847656 41.097656 75.84375 41.859375 72.960938 42.847656 C 72.164062 43.121094 72.078125 43.171875 72.386719 43.921875 C 72.953125 45.304688 72.457031 46.34375 71.015625 46.773438 C 70.386719 46.957031 70.351562 47.429688 70.527344 47.914062 C 70.71875 48.453125 70.6875 48.917969 70.441406 49.433594 C 70.101562 50.148438 70.597656 51.636719 71.269531 52.066406 C 71.367188 52.128906 71.542969 52.21875 71.589844 52.179688 C 72.125 51.753906 72.636719 52.371094 73.171875 52.195312 C 73.320312 52.144531 73.550781 52.253906 73.714844 52.34375 C 74.121094 52.574219 74.527344 52.75 75.011719 52.621094 C 75.207031 52.570312 75.378906 52.679688 75.550781 52.777344 C 75.925781 52.992188 76.3125 53.191406 76.695312 53.386719 C 77.886719 53.996094 77.886719 53.992188 79 53.707031 C 79.480469 53.894531 78.902344 54.835938 79.761719 54.765625 C 80.277344 54.722656 80.703125 54.421875 81.214844 54.300781 C 81.691406 54.972656 80.71875 55.0625 80.742188 55.574219 C 81.382812 56.113281 82.160156 56.03125 82.929688 55.898438 C 82.957031 56.230469 82.726562 56.285156 82.601562 56.414062 C 82.292969 56.730469 82.285156 57.03125 82.464844 57.449219 C 82.925781 58.53125 83.730469 58.980469 84.859375 59.089844 C 85.382812 59.144531 85.84375 59.695312 86.464844 59.195312 C 86.476562 59.957031 86.960938 60 87.433594 59.929688 C 87.9375 59.855469 88.167969 60.023438 88.175781 60.515625 C 88.179688 60.671875 88.210938 60.800781 88.339844 60.894531 C 89.515625 61.730469 90.714844 62.484375 92.257812 62.40625 C 93.121094 62.363281 93.925781 62.578125 94.589844 63.175781 C 94.917969 63.46875 95.28125 63.324219 95.617188 63.222656 C 97.382812 62.671875 99.125 62.050781 100.917969 61.589844 C 101.285156 61.492188 101.617188 61.425781 102.023438 61.472656 C 102.546875 61.539062 103.105469 61.441406 103.625 61.175781 C 104.058594 60.957031 104.558594 60.742188 104.867188 61.441406 C 104.988281 61.714844 105.339844 61.753906 105.621094 61.816406 C 106.085938 61.914062 106.351562 62.191406 106.363281 62.65625 C 106.378906 63.164062 106.210938 63.605469 105.707031 63.835938 C 105.601562 63.886719 105.476562 63.933594 105.363281 63.925781 C 103.445312 63.816406 101.792969 64.734375 100.058594 65.316406 C 98.792969 65.738281 97.546875 66.222656 96.269531 66.597656 C 94.59375 67.089844 92.933594 67.027344 91.269531 66.386719 C 89.683594 65.777344 88.171875 64.933594 86.4375 64.765625 C 86.28125 64.75 86.113281 64.648438 85.992188 64.542969 C 85.261719 63.894531 84.382812 63.496094 83.53125 63.050781 C 82.246094 62.382812 81.058594 61.597656 80.144531 60.449219 C 80.085938 60.378906 80.007812 60.289062 79.925781 60.273438 C 78.191406 59.960938 77.207031 58.464844 75.789062 57.660156 C 75.234375 57.34375 74.753906 56.59375 74.023438 57.160156 C 73.324219 57.703125 74.0625 58.28125 74.132812 58.847656 C 74.304688 60.261719 75.003906 61.0625 76.535156 61.121094 C 77.464844 61.152344 78.207031 61.667969 78.859375 62.402344 C 79.648438 63.292969 80.617188 64.015625 81.21875 65.078125 C 81.449219 65.488281 81.867188 65.628906 82.222656 65.628906 C 82.714844 67.046875 83.988281 67.140625 85.074219 67.480469 C 84.953125 67.808594 84.5625 67.679688 84.515625 67.980469 C 84.566406 68.441406 85.0625 68.039062 85.203125 68.359375 C 85.257812 68.589844 84.847656 68.5 84.910156 68.824219 C 86.070312 69.667969 87.664062 69.738281 88.871094 70.660156 C 88.476562 70.832031 88.476562 70.832031 87.164062 70.324219 C 86.566406 70.09375 85.949219 70.082031 85.292969 70.148438 C 85.109375 71.0625 85.300781 71.800781 86.054688 72.386719 C 87.511719 73.511719 88.953125 74.664062 90.183594 76.050781 C 90.308594 76.191406 90.492188 76.265625 90.484375 76.503906 C 90.445312 77.261719 90.910156 77.476562 91.550781 77.40625 C 92.6875 77.273438 93.84375 77.398438 94.976562 77.09375 C 95.253906 77.019531 95.636719 77.121094 95.9375 77.386719 C 96.742188 78.089844 97.011719 78.105469 97.898438 77.523438 C 98.292969 77.261719 98.75 77.207031 99.167969 77.0625 C 100.195312 76.703125 100.953125 75.875 101.996094 75.558594 C 102.25 75.484375 102.488281 75.402344 102.753906 75.382812 C 103.285156 75.347656 103.804688 75.242188 104.296875 75.039062 C 105.1875 74.675781 106.023438 74.738281 106.832031 75.277344 C 107.148438 75.484375 107.472656 75.691406 107.882812 75.710938 C 108.863281 75.753906 109.238281 76.074219 109.453125 77.046875 C 109.5 77.257812 109.519531 77.476562 109.519531 77.691406 C 109.515625 78.097656 109.339844 78.296875 108.886719 78.25 C 108.085938 78.164062 107.609375 77.644531 107.160156 77.066406 C 106.882812 76.71875 106.6875 76.230469 106.09375 76.40625 C 105.652344 76.535156 104.945312 77.539062 104.976562 78.011719 C 104.601562 78.074219 104.351562 78.324219 104.054688 78.558594 C 103.621094 78.910156 103.09375 79.226562 102.570312 79.433594 C 101.964844 79.671875 101.335938 79.882812 100.8125 80.246094 C 99.582031 81.09375 98.191406 81.527344 96.808594 82 C 96.308594 82.171875 95.808594 82.136719 95.316406 82.03125 C 93.046875 81.535156 90.773438 81.085938 88.539062 80.394531 C 87.210938 79.984375 86.371094 79.320312 85.679688 78.234375 C 84.863281 76.957031 83.601562 76.023438 82.871094 74.675781 C 82.734375 74.425781 82.574219 74.183594 82.441406 73.929688 C 82.097656 73.253906 81.898438 72.488281 81.125 72.105469 C 80.953125 72.023438 80.847656 71.78125 80.746094 71.59375 C 80.105469 70.414062 79.46875 69.238281 78.851562 68.050781 C 78.671875 67.710938 78.546875 67.34375 78.078125 67.347656 C 78.082031 67.011719 78.398438 66.6875 77.976562 66.464844 C 77.65625 66.292969 77.316406 66.28125 77.007812 66.445312 C 76.683594 66.617188 76.789062 66.945312 76.824219 67.222656 C 77.039062 69.035156 77.269531 70.84375 77.476562 72.652344 C 77.523438 73.054688 77.644531 73.386719 77.933594 73.675781 C 79.09375 74.828125 79.640625 76.324219 80.210938 77.804688 C 80.226562 77.851562 80.246094 77.90625 80.234375 77.945312 C 79.890625 79.191406 80.738281 80.214844 80.871094 81.375 C 81.007812 82.5625 81.3125 83.734375 81.46875 84.921875 C 81.808594 87.511719 82.316406 90.109375 82.078125 92.726562 C 81.871094 95.015625 82.339844 97.167969 82.898438 99.332031 C 83.121094 100.191406 83.347656 101.140625 83.339844 101.929688 C 83.320312 103.050781 83.566406 104.058594 83.859375 105.0625 C 84.078125 105.820312 84.234375 106.609375 84.601562 107.339844 C 84.867188 107.871094 85.359375 108.199219 85.664062 108.707031 C 85.851562 109.011719 86.703125 109.105469 87.1875 108.992188 C 87.710938 108.871094 87.980469 109.125 88.351562 109.300781 C 89.511719 109.84375 90.125 110.902344 90.839844 111.863281 C 91.0625 112.164062 90.960938 112.46875 90.667969 112.679688 C 90.347656 112.910156 90.136719 112.699219 89.945312 112.460938 C 89.699219 112.160156 89.632812 111.742188 89.121094 111.632812 C 88.53125 111.5 88.054688 111.050781 87.613281 111.976562 C 87.347656 112.527344 86.667969 112.914062 86.105469 113.269531 C 85.105469 113.894531 83.40625 113.398438 82.652344 112.324219 C 82.179688 111.648438 81.917969 110.867188 81.589844 110.121094 C 81.003906 108.804688 80.503906 107.457031 79.632812 106.277344 C 79.09375 105.546875 79.234375 104.609375 79.160156 103.761719 C 78.898438 100.820312 78.691406 97.875 78.460938 94.933594 C 78.449219 94.789062 78.472656 94.613281 78.398438 94.507812 C 77.316406 92.964844 78.109375 91.339844 78.21875 89.761719 C 78.390625 87.292969 78.605469 84.828125 78.023438 82.382812 C 77.972656 82.164062 78.023438 81.886719 77.75 81.765625 C 77.585938 81.761719 77.554688 81.875 77.511719 81.992188 C 76.792969 83.972656 76.5 86.042969 76.164062 88.117188 C 75.816406 90.28125 75.25 92.410156 74.332031 94.429688 C 74.070312 95.003906 73.753906 95.503906 73.363281 95.996094 C 72.792969 96.707031 72.503906 97.566406 72.238281 98.441406 C 72.042969 99.097656 71.78125 99.777344 70.929688 99.898438 C 70.574219 99.949219 70.347656 100.214844 70.121094 100.46875 C 69.410156 101.265625 68.570312 101.902344 67.628906 102.402344 C 67 102.734375 66.664062 103.402344 66.035156 103.742188 C 65.773438 103.882812 65.578125 104.058594 65.28125 103.78125 C 64.953125 103.476562 64.5625 103.6875 64.269531 103.835938 C 63.226562 104.359375 62.023438 104.328125 60.980469 104.871094 C 60.507812 105.113281 59.925781 104.816406 59.375 104.847656 C 57.941406 104.921875 56.472656 105.007812 55.070312 104.773438 C 54.082031 104.609375 53.0625 104.347656 52.105469 103.960938 C 51.195312 103.589844 50.300781 103.167969 49.328125 102.984375 C 49.257812 102.96875 49.179688 102.941406 49.132812 102.894531 C 48.371094 102.09375 47.214844 101.832031 46.507812 100.949219 C 46.210938 100.578125 45.855469 100.253906 45.394531 100.054688 C 45.125 99.9375 44.933594 99.710938 44.839844 99.421875 C 44.667969 98.90625 44.390625 98.523438 43.78125 98.511719 C 43.558594 98.507812 43.382812 98.335938 43.40625 98.144531 C 43.484375 97.5 43.070312 97.140625 42.761719 96.65625 C 42.269531 95.882812 41.964844 94.96875 41.664062 94.085938 C 41.183594 92.679688 40.796875 91.238281 40.3125 89.832031 C 40.046875 89.0625 40.117188 88.207031 39.664062 87.484375 C 39.5625 87.320312 39.695312 87.113281 39.703125 86.925781 C 39.753906 85.5 40.027344 84.0625 39.351562 82.683594 C 39.164062 82.300781 39.265625 81.824219 39.460938 81.433594 C 39.84375 80.667969 39.496094 79.96875 39.277344 79.277344 C 39.148438 78.867188 38.511719 78.90625 38.3125 79.351562 C 37.933594 80.191406 37.425781 81.011719 37.800781 82.023438 C 37.984375 82.511719 38.027344 83.042969 37.855469 83.578125 C 37.730469 83.96875 38 84.320312 38.082031 84.691406 C 38.359375 85.917969 38.136719 87.183594 38.382812 88.414062 C 38.40625 88.523438 38.386719 88.679688 38.320312 88.761719 C 37.644531 89.597656 37.839844 90.585938 37.828125 91.53125 C 37.792969 93.667969 37.953125 95.808594 37.710938 97.941406 C 37.6875 98.175781 37.726562 98.425781 37.769531 98.65625 C 37.886719 99.261719 37.75 99.792969 37.398438 100.292969 C 37.09375 100.726562 36.820312 101.179688 36.542969 101.625 C 36.292969 102.03125 36.175781 102.441406 36.351562 102.925781 C 36.53125 103.429688 36.402344 103.824219 35.808594 103.957031 C 35.457031 104.03125 35.339844 104.335938 35.195312 104.613281 C 34.582031 105.785156 33.890625 106.921875 33.375 108.136719 C 32.925781 109.191406 31.871094 109.492188 31.171875 110.21875 C 30.664062 110.742188 29.921875 111.003906 29.574219 111.71875 C 29.394531 112.089844 28.980469 111.671875 28.671875 111.929688 C 28.664062 112.285156 28.746094 112.789062 28.03125 112.617188 C 27.863281 112.582031 27.925781 113.023438 27.6875 113.121094 C 26.875 112.835938 24.929688 113.613281 24.339844 114.398438 C 23.902344 114.980469 23.65625 115.582031 23.796875 116.316406 C 23.808594 116.378906 23.800781 116.480469 23.761719 116.519531 C 23.285156 116.964844 22.8125 116.550781 22.339844 116.5 C 22.011719 116.464844 21.714844 116.320312 21.828125 115.886719 C 21.921875 115.539062 21.945312 115.128906 22.152344 114.867188 C 22.992188 113.792969 23.210938 112.359375 24.292969 111.414062 C 24.886719 110.894531 25.484375 110.375 26.105469 109.882812 C 27.105469 109.097656 28.113281 108.324219 29.117188 107.539062 C 29.207031 107.46875 29.324219 107.382812 29.351562 107.28125 C 29.972656 105.03125 31.441406 103.253906 32.636719 101.324219 C 32.820312 101.027344 33.230469 100.792969 32.8125 100.359375 C 32.75 100.292969 32.898438 100.007812 32.964844 99.828125 C 33.285156 99.019531 33.464844 98.179688 33.566406 97.261719 M 61.027344 38.722656 C 61.007812 38.707031 60.992188 38.6875 60.972656 38.679688 C 60.953125 38.671875 60.90625 38.675781 60.90625 38.679688 C 60.832031 39.257812 61.078125 39.609375 61.617188 39.675781 C 61.558594 39.296875 61.292969 39.054688 61.027344 38.722656 M 55.984375 39.40625 C 55.960938 39.574219 55.90625 39.769531 56.179688 39.761719 C 56.382812 39.753906 56.472656 39.609375 56.5 39.429688 C 56.523438 39.285156 56.527344 39.121094 56.363281 39.058594 C 56.144531 38.984375 56.074219 39.15625 55.984375 39.40625 Z M 55.984375 39.40625 "/><path style=" stroke:none;fill-rule:evenodd;fill:#000000;fill-opacity:1;" d="M 98.914062 3.449219 C 98.605469 3.53125 97.292969 5.203125 97.292969 5.515625 C 97.292969 5.605469 96.996094 6.332031 96.632812 7.132812 C 95.898438 8.761719 95.355469 9.976562 94.996094 10.800781 C 94.867188 11.105469 94.546875 11.8125 94.285156 12.371094 C 93.847656 13.320312 93.519531 14.074219 92.972656 15.414062 C 92.710938 16.054688 92.050781 18.1875 91.75 19.351562 C 91.601562 19.933594 91.257812 20.433594 90.480469 21.199219 C 89.613281 22.050781 89.265625 22.589844 88.617188 24.09375 C 87.636719 26.355469 87.183594 27.070312 86.578125 27.324219 C 85.3125 27.851562 82.609375 30.949219 81.25 33.429688 C 81.050781 33.789062 80.746094 34.207031 80.570312 34.351562 C 80.257812 34.609375 78.84375 35.003906 77.523438 35.195312 C 77.136719 35.253906 76.488281 35.597656 75.953125 36.027344 C 75.453125 36.429688 74.589844 37.054688 74.03125 37.414062 C 73.472656 37.769531 72.933594 38.164062 72.832031 38.285156 C 72.730469 38.402344 72.132812 38.902344 71.507812 39.386719 C 70.882812 39.875 70.078125 40.71875 69.714844 41.261719 C 69.230469 41.992188 68.925781 42.265625 68.558594 42.308594 C 68.136719 42.359375 67.9375 42.613281 67.269531 43.9375 C 66.34375 45.777344 66.070312 46.027344 65.542969 45.503906 C 65.199219 45.15625 65.1875 45.039062 65.386719 43.433594 C 65.566406 41.976562 65.554688 41.628906 65.308594 41.035156 C 64.734375 39.648438 64.347656 37.320312 64.558594 36.53125 C 64.734375 35.863281 64.707031 35.75 64.222656 35.140625 C 63.929688 34.773438 63.691406 34.308594 63.691406 34.105469 C 63.691406 33.902344 63.523438 32.980469 63.320312 32.054688 C 62.464844 28.203125 62.101562 27.546875 60.617188 27.183594 C 58.820312 26.746094 58.347656 26.726562 57.074219 27.039062 C 54.804688 27.59375 54.292969 28.164062 53.910156 30.527344 C 53.8125 31.152344 53.554688 32.699219 53.335938 33.96875 C 53.121094 35.238281 52.875 37.164062 52.792969 38.246094 C 52.691406 39.574219 52.542969 40.371094 52.332031 40.691406 C 52.097656 41.046875 52.050781 41.371094 52.140625 41.976562 C 52.234375 42.613281 52.199219 42.808594 51.976562 42.894531 C 51.5625 43.054688 51.625 43.9375 52.089844 44.429688 C 52.417969 44.777344 52.445312 44.898438 52.25 45.132812 C 51.660156 45.84375 50.988281 45.296875 49.976562 43.289062 C 49.824219 42.984375 49.390625 42.441406 49.015625 42.089844 C 48.640625 41.734375 48.113281 41.195312 47.84375 40.890625 C 46.824219 39.734375 45.464844 38.53125 44.285156 37.742188 C 42.929688 36.835938 41.90625 35.875 41.90625 35.503906 C 41.90625 35.34375 41.660156 35.261719 41.191406 35.261719 C 40.792969 35.261719 40.378906 35.144531 40.253906 34.996094 C 40.132812 34.851562 39.769531 34.679688 39.449219 34.617188 C 37.828125 34.296875 37.71875 34.15625 36.640625 31.015625 C 35.484375 27.644531 35.226562 27.0625 34.566406 26.371094 C 33.941406 25.710938 33.925781 25.660156 34.019531 24.523438 C 34.105469 23.492188 34.722656 20.234375 35.003906 19.335938 C 35.058594 19.15625 35.699219 18.71875 36.429688 18.367188 C 38.347656 17.4375 38.675781 17.113281 38.675781 16.140625 C 38.675781 15.46875 38.566406 15.230469 37.996094 14.640625 C 37.621094 14.253906 37.226562 13.707031 37.121094 13.425781 C 36.878906 12.785156 36.574219 12.664062 35.5625 12.816406 C 34.570312 12.964844 33.96875 13.496094 33.96875 14.222656 C 33.96875 14.699219 33.902344 14.769531 33.453125 14.769531 C 32.910156 14.769531 31.503906 15.570312 30.996094 16.171875 C 30.832031 16.367188 30.546875 16.921875 30.367188 17.40625 C 29.757812 19.035156 30.292969 28.574219 31.039062 29.476562 C 31.320312 29.8125 32.675781 32.632812 32.675781 32.875 C 32.675781 33.253906 33.589844 34.84375 34.3125 35.714844 C 34.726562 36.214844 35.113281 36.84375 35.171875 37.117188 C 35.304688 37.734375 36.398438 38.832031 37.382812 39.335938 C 37.789062 39.546875 39.035156 40.09375 40.152344 40.550781 C 41.296875 41.019531 42.34375 41.574219 42.554688 41.824219 C 42.808594 42.125 43.152344 42.28125 43.660156 42.316406 L 44.398438 42.371094 L 44.457031 43.65625 C 44.519531 45.164062 44.707031 45.441406 46.105469 46.105469 C 47.121094 46.585938 47.277344 46.863281 46.777344 47.28125 C 46.53125 47.484375 46.5 47.757812 46.597656 48.855469 C 46.667969 49.617188 46.648438 50.230469 46.550781 50.292969 C 46.304688 50.441406 44.785156 49.738281 43.382812 48.824219 C 42.371094 48.164062 41.316406 47.652344 39.046875 46.71875 C 38.84375 46.636719 38.324219 46.421875 37.894531 46.242188 C 37.328125 46.003906 36.859375 45.945312 36.167969 46.027344 C 34.945312 46.175781 34.402344 45.9375 32.726562 44.539062 C 31.15625 43.21875 30.445312 42.773438 29.445312 42.460938 C 29.039062 42.335938 28.628906 42.160156 28.53125 42.070312 C 28.433594 41.980469 28.246094 41.90625 28.109375 41.90625 C 27.730469 41.90625 26.800781 41.207031 25.433594 39.890625 C 24.714844 39.199219 23.867188 38.574219 23.417969 38.410156 C 22.738281 38.160156 22.5 37.894531 21.480469 36.277344 C 20.84375 35.261719 20.191406 34.183594 20.035156 33.878906 C 19.882812 33.574219 19.566406 33.105469 19.335938 32.839844 C 19.109375 32.574219 18.632812 31.933594 18.277344 31.414062 C 17.875 30.820312 17.316406 30.300781 16.773438 30.003906 C 15.84375 29.496094 14.769531 28.402344 14.769531 27.960938 C 14.769531 27.636719 13.71875 26.957031 13.222656 26.953125 C 12.925781 26.953125 12.890625 27.054688 12.980469 27.605469 C 13.054688 28.0625 13.425781 28.628906 14.222656 29.5 C 15.5625 30.957031 16.246094 32.207031 16.246094 33.191406 C 16.246094 34.125 19.074219 39.621094 20.238281 40.949219 C 21.316406 42.183594 23.96875 44.25 25.476562 45.027344 C 26.136719 45.371094 26.925781 45.882812 27.230469 46.167969 C 27.535156 46.457031 28.078125 46.8125 28.441406 46.960938 C 28.800781 47.113281 29.804688 47.644531 30.675781 48.148438 C 32.097656 48.96875 34.191406 49.847656 34.730469 49.847656 C 34.84375 49.847656 35.21875 50.09375 35.566406 50.398438 C 35.914062 50.703125 36.339844 50.960938 36.515625 50.96875 C 37.570312 51.019531 37.855469 51.089844 38.1875 51.390625 C 38.425781 51.605469 38.695312 51.683594 38.9375 51.605469 C 39.144531 51.539062 39.898438 51.542969 40.613281 51.613281 L 41.90625 51.738281 L 41.90625 52.710938 C 41.90625 53.5625 41.96875 53.71875 42.410156 54.011719 C 42.6875 54.191406 43.167969 54.394531 43.472656 54.457031 C 43.984375 54.566406 44.027344 54.632812 43.976562 55.261719 C 43.945312 55.636719 43.746094 56.253906 43.53125 56.632812 C 43.113281 57.375 39.59375 60.921875 39.28125 60.921875 C 38.820312 60.921875 37.804688 61.765625 36.886719 62.910156 C 35.925781 64.109375 34.714844 65.953125 34.703125 66.234375 C 34.699219 66.355469 33.722656 67.890625 32.914062 69.046875 C 32.734375 69.300781 32.21875 69.859375 31.761719 70.292969 C 30.960938 71.050781 30.945312 71.078125 31.414062 71.078125 C 31.679688 71.078125 32.09375 71.238281 32.332031 71.429688 L 32.769531 71.785156 L 32.414062 72.402344 C 31.53125 73.925781 31.203125 74.214844 30.363281 74.214844 C 29.925781 74.214844 29.4375 74.265625 29.277344 74.328125 C 28.808594 74.507812 28.929688 74.953125 29.445312 74.953125 C 29.972656 74.953125 30.089844 75.496094 29.644531 75.867188 C 29.496094 75.988281 29.191406 76.535156 28.964844 77.089844 C 28.578125 78.015625 28.472656 78.117188 27.558594 78.460938 C 27.015625 78.664062 26.421875 78.832031 26.238281 78.832031 C 25.707031 78.832031 23.78125 79.542969 23.414062 79.875 C 23.03125 80.21875 21.53125 80.238281 19.328125 79.917969 C 16.222656 79.472656 14.972656 79.492188 13.40625 80.019531 L 11.949219 80.507812 L 11.546875 80.128906 C 10.761719 79.394531 10.003906 79.691406 9.34375 80.992188 C 8.648438 82.363281 9.261719 82.9375 10.976562 82.523438 C 11.789062 82.328125 12.042969 82.328125 12.265625 82.515625 C 12.496094 82.707031 12.644531 82.664062 13.117188 82.265625 C 13.804688 81.6875 14.023438 81.671875 14.546875 82.160156 C 15.46875 83.015625 20.015625 84 23.058594 84 L 25.199219 84 L 27.785156 82.707031 C 29.207031 81.992188 30.707031 81.226562 31.117188 80.996094 C 31.527344 80.769531 32.066406 80.5 32.3125 80.398438 C 32.917969 80.148438 33.546875 79.164062 35.28125 75.742188 C 36.089844 74.148438 36.855469 72.714844 36.980469 72.558594 C 37.339844 72.105469 37.761719 71.230469 38.027344 70.382812 C 38.164062 69.953125 38.515625 69.332031 38.808594 69.003906 C 39.269531 68.488281 39.332031 68.28125 39.285156 67.484375 C 39.238281 66.714844 39.285156 66.554688 39.570312 66.496094 C 39.878906 66.433594 39.902344 66.535156 39.820312 67.597656 C 39.691406 69.351562 39.296875 70.613281 38.667969 71.300781 C 37.570312 72.496094 35.816406 75.425781 35.816406 76.066406 C 35.816406 76.222656 35.6875 76.527344 35.535156 76.75 C 35.378906 76.96875 35.167969 77.832031 35.0625 78.667969 C 34.816406 80.644531 34.355469 83.269531 34.21875 83.488281 C 34.097656 83.683594 33.753906 87.964844 33.777344 89.003906 C 33.785156 89.371094 33.664062 89.910156 33.515625 90.199219 C 33.152344 90.898438 33.496094 91.316406 33.917969 90.691406 C 34.070312 90.464844 34.320312 90.277344 34.472656 90.277344 C 34.691406 90.277344 34.667969 90.40625 34.355469 90.933594 C 34.074219 91.414062 33.96875 91.902344 33.96875 92.75 C 33.96875 93.429688 33.816406 94.355469 33.601562 94.984375 C 33.363281 95.671875 33.230469 96.539062 33.230469 97.390625 C 33.230469 98.15625 33.113281 99.003906 32.953125 99.386719 C 32.800781 99.75 32.675781 100.261719 32.675781 100.523438 C 32.675781 100.785156 32.273438 101.589844 31.769531 102.328125 C 30.648438 103.980469 29.359375 106.328125 29.355469 106.730469 C 29.355469 107.039062 28.136719 108.152344 26.253906 109.574219 C 24.253906 111.085938 23.527344 111.902344 22.628906 113.65625 C 22.15625 114.585938 21.75 115.582031 21.730469 115.867188 C 21.695312 116.328125 21.785156 116.425781 22.480469 116.667969 C 23.527344 117.035156 23.875 116.816406 24.007812 115.695312 C 24.070312 115.167969 24.269531 114.671875 24.527344 114.394531 C 24.949219 113.949219 26.710938 113.167969 27.300781 113.167969 C 27.816406 113.167969 28.609375 112.730469 28.71875 112.382812 C 28.777344 112.207031 28.945312 112.0625 29.089844 112.0625 C 29.234375 112.0625 29.75 111.683594 30.230469 111.226562 C 30.714844 110.765625 31.535156 110.09375 32.054688 109.734375 C 32.8125 109.207031 33.152344 108.789062 33.730469 107.660156 C 35.261719 104.675781 35.5 104.296875 36.019531 103.988281 C 36.5 103.707031 36.554688 103.578125 36.554688 102.703125 C 36.554688 101.90625 36.660156 101.582031 37.152344 100.882812 L 37.753906 100.03125 L 37.847656 94.824219 C 37.925781 90.324219 37.980469 89.546875 38.253906 89.132812 C 38.589844 88.621094 38.570312 88.0625 38.023438 82.78125 C 37.820312 80.824219 37.832031 80.691406 38.207031 79.953125 C 38.472656 79.429688 38.707031 79.195312 38.914062 79.238281 C 39.3125 79.3125 39.511719 80.476562 39.292969 81.449219 C 39.179688 81.960938 39.214844 82.488281 39.414062 83.265625 C 39.589844 83.941406 39.683594 85.007812 39.660156 86.070312 C 39.625 87.746094 39.800781 88.878906 40.328125 90.367188 C 40.472656 90.773438 40.902344 92.105469 41.289062 93.324219 C 41.671875 94.542969 42.257812 96.007812 42.59375 96.585938 C 42.925781 97.160156 43.199219 97.804688 43.199219 98.011719 C 43.199219 98.273438 43.402344 98.480469 43.847656 98.664062 C 44.21875 98.820312 44.570312 99.132812 44.671875 99.398438 C 44.765625 99.652344 45.183594 100.082031 45.59375 100.355469 C 46.003906 100.625 46.339844 100.917969 46.339844 101 C 46.339844 101.203125 48.253906 102.539062 49.199219 102.992188 C 50.023438 103.390625 53.152344 104.492188 54.277344 104.78125 C 56.082031 105.246094 60.382812 105.277344 61.445312 104.828125 C 61.886719 104.644531 62.4375 104.492188 62.675781 104.492188 C 62.914062 104.492188 63.484375 104.332031 63.945312 104.132812 C 64.492188 103.898438 65 103.808594 65.414062 103.875 C 65.945312 103.960938 66.160156 103.878906 66.761719 103.351562 C 67.15625 103.007812 67.84375 102.480469 68.292969 102.179688 C 68.742188 101.878906 69.488281 101.289062 69.953125 100.875 C 70.417969 100.460938 71.046875 100 71.351562 99.859375 C 71.789062 99.652344 72.023438 99.304688 72.464844 98.203125 C 72.773438 97.433594 73.289062 96.394531 73.613281 95.890625 C 74.960938 93.789062 75.601562 91.835938 76.417969 87.324219 C 77.023438 83.992188 77.613281 81.597656 77.816406 81.664062 C 78.042969 81.738281 78.050781 89.964844 77.828125 91.867188 C 77.707031 92.910156 77.734375 93.347656 77.96875 93.992188 C 78.277344 94.828125 78.714844 98.96875 78.929688 103.050781 C 79.023438 104.851562 79.132812 105.539062 79.402344 106.003906 C 79.726562 106.570312 80.519531 108.179688 82.09375 111.453125 C 82.789062 112.902344 83.449219 113.472656 84.660156 113.667969 C 85.5 113.804688 87.128906 112.992188 87.59375 112.207031 C 88.046875 111.441406 88.851562 111.5 89.660156 112.355469 C 90.347656 113.085938 90.75 113.085938 90.9375 112.351562 C 91.027344 111.992188 90.890625 111.664062 90.351562 110.929688 C 89.371094 109.597656 88.253906 108.921875 87.023438 108.921875 C 86.105469 108.921875 86.023438 108.882812 85.433594 108.136719 C 85.09375 107.707031 84.671875 107.039062 84.5 106.652344 C 84.042969 105.644531 83.445312 102.816406 83.445312 101.664062 C 83.445312 101.125 83.324219 100.273438 83.175781 99.769531 C 82.429688 97.261719 82.164062 95.140625 82.171875 91.746094 C 82.179688 88.140625 81.839844 85.316406 80.921875 81.414062 C 80.671875 80.347656 80.402344 78.976562 80.320312 78.367188 C 80.152344 77.082031 79.527344 75.503906 78.820312 74.585938 C 77.910156 73.398438 77.539062 72.652344 77.542969 72 C 77.542969 71.644531 77.402344 70.335938 77.226562 69.09375 C 76.96875 67.296875 76.953125 66.789062 77.132812 66.605469 C 77.421875 66.316406 77.96875 66.621094 78.066406 67.121094 C 78.105469 67.3125 78.238281 67.554688 78.367188 67.65625 C 78.597656 67.84375 79.441406 69.316406 80.222656 70.890625 C 80.449219 71.347656 80.921875 72.027344 81.269531 72.394531 C 81.621094 72.765625 82.167969 73.597656 82.492188 74.246094 C 82.816406 74.894531 83.496094 75.882812 84.007812 76.4375 C 84.515625 76.992188 85.21875 77.863281 85.566406 78.375 C 85.910156 78.882812 86.445312 79.484375 86.75 79.710938 C 87.3125 80.125 89.238281 80.816406 90.921875 81.207031 C 91.429688 81.328125 92.523438 81.585938 93.351562 81.789062 C 95.851562 82.394531 96.945312 82.273438 99.507812 81.105469 C 99.863281 80.941406 100.359375 80.667969 100.613281 80.496094 C 100.867188 80.328125 101.558594 79.992188 102.152344 79.757812 C 103.292969 79.304688 105.226562 77.980469 105.234375 77.644531 C 105.246094 77.28125 105.929688 76.617188 106.289062 76.617188 C 106.484375 76.617188 106.910156 76.945312 107.234375 77.351562 C 108.214844 78.570312 109.660156 78.683594 109.660156 77.542969 C 109.660156 76.382812 108.875 75.507812 107.835938 75.507812 C 107.632812 75.507812 107.171875 75.335938 106.8125 75.121094 C 106.289062 74.8125 105.945312 74.753906 105.09375 74.820312 C 103.597656 74.9375 101.664062 75.460938 100.746094 75.992188 C 100.320312 76.242188 99.84375 76.515625 99.691406 76.605469 C 99.230469 76.871094 97.027344 77.722656 96.808594 77.722656 C 96.695312 77.722656 96.378906 77.546875 96.109375 77.332031 C 95.539062 76.886719 95.40625 76.875 93.046875 77.128906 C 91.171875 77.328125 90.644531 77.214844 90.644531 76.621094 C 90.644531 76.414062 89.847656 75.539062 88.667969 74.460938 C 85.679688 71.71875 85.265625 71.269531 85.328125 70.847656 C 85.425781 70.1875 85.886719 70.058594 86.882812 70.417969 C 88.347656 70.9375 88.847656 70.996094 88.769531 70.625 C 88.710938 70.324219 88.066406 70.003906 86.179688 69.332031 C 85.550781 69.109375 85.300781 68.914062 85.257812 68.621094 C 85.214844 68.320312 85.09375 68.230469 84.785156 68.273438 C 84.265625 68.34375 84.242188 68.019531 84.742188 67.75 C 85.25 67.480469 85.085938 67.292969 84.085938 67.011719 C 83.507812 66.851562 83.089844 66.582031 82.765625 66.15625 C 82.507812 65.816406 82.183594 65.539062 82.050781 65.539062 C 81.914062 65.539062 81.433594 65.0625 80.980469 64.476562 C 79.300781 62.3125 77.523438 60.921875 76.4375 60.921875 C 75.214844 60.921875 74.707031 60.378906 74.144531 58.488281 C 73.910156 57.695312 73.917969 57.59375 74.21875 57.320312 C 74.527344 57.042969 74.605469 57.054688 75.351562 57.523438 C 75.792969 57.796875 76.195312 58.078125 76.246094 58.148438 C 76.542969 58.546875 78.929688 60.203125 79.347656 60.296875 C 79.621094 60.363281 80.261719 60.808594 80.769531 61.292969 C 81.277344 61.777344 82.523438 62.648438 83.539062 63.234375 C 84.554688 63.820312 85.527344 64.421875 85.699219 64.574219 C 85.875 64.722656 86.414062 64.917969 86.902344 65.007812 C 87.707031 65.152344 89.609375 65.820312 91.464844 66.609375 C 91.988281 66.832031 92.71875 66.917969 94.050781 66.914062 C 95.78125 66.90625 96.082031 66.847656 98.492188 66.019531 C 99.914062 65.527344 101.578125 64.941406 102.191406 64.710938 C 102.804688 64.480469 103.84375 64.230469 104.5 64.15625 C 105.859375 64.003906 106.523438 63.546875 106.523438 62.765625 C 106.523438 62.238281 106.023438 61.660156 105.566406 61.660156 C 105.414062 61.660156 105.128906 61.488281 104.9375 61.277344 C 104.664062 60.972656 104.457031 60.917969 103.941406 61.007812 C 103.585938 61.066406 102.75 61.1875 102.089844 61.273438 C 100.625 61.464844 100.050781 61.597656 98.859375 62.019531 C 95.6875 63.148438 95.0625 63.253906 94.203125 62.796875 C 93.8125 62.589844 92.980469 62.386719 92.300781 62.332031 C 91.636719 62.28125 90.71875 62.074219 90.261719 61.878906 C 89.429688 61.523438 88.1875 60.492188 88.039062 60.039062 C 87.996094 59.90625 87.757812 59.789062 87.503906 59.777344 C 87.25 59.761719 86.878906 59.613281 86.675781 59.445312 C 86.472656 59.277344 86.015625 59.125 85.660156 59.105469 C 83.589844 58.992188 82.171875 57.707031 82.792969 56.503906 C 82.941406 56.21875 83.007812 55.933594 82.945312 55.871094 C 82.882812 55.804688 82.433594 55.753906 81.949219 55.753906 C 80.992188 55.753906 80.707031 55.558594 81.140625 55.199219 C 81.292969 55.074219 81.414062 54.808594 81.414062 54.609375 C 81.414062 54.28125 81.324219 54.261719 80.425781 54.375 C 79.523438 54.488281 79.425781 54.464844 79.335938 54.109375 C 79.253906 53.792969 79.089844 53.722656 78.433594 53.722656 C 77.898438 53.722656 77.261719 53.53125 76.523438 53.148438 C 75.414062 52.578125 74.867188 52.421875 72.472656 52 C 71.367188 51.808594 71.144531 51.699219 70.847656 51.226562 C 70.578125 50.800781 70.53125 50.492188 70.628906 49.847656 C 70.695312 49.390625 70.742188 48.582031 70.726562 48.054688 C 70.703125 47.128906 70.722656 47.085938 71.355469 46.789062 C 72.5625 46.214844 73.046875 45.003906 72.523438 43.855469 C 72.40625 43.59375 72.359375 43.332031 72.421875 43.269531 C 72.484375 43.210938 73.496094 42.835938 74.675781 42.4375 C 75.851562 42.042969 77.371094 41.4375 78.054688 41.09375 C 79.859375 40.179688 83.566406 37.34375 84.734375 35.980469 C 85.289062 35.332031 86.472656 34.039062 87.363281 33.109375 C 88.253906 32.179688 88.984375 31.285156 88.984375 31.121094 C 88.984375 30.957031 89.335938 30.441406 89.761719 29.976562 C 90.191406 29.511719 90.792969 28.734375 91.101562 28.246094 C 91.902344 26.980469 93.167969 25.195312 93.507812 24.855469 C 93.667969 24.695312 94.011719 24.085938 94.273438 23.5 C 94.535156 22.910156 95.03125 21.835938 95.375 21.105469 C 95.71875 20.378906 96 19.707031 96 19.613281 C 96 19.367188 98.679688 11.300781 99.050781 10.429688 C 99.222656 10.023438 99.605469 9.386719 99.898438 9.015625 C 100.5 8.261719 100.984375 7.039062 100.984375 6.289062 C 100.984375 6.015625 100.855469 5.359375 100.699219 4.835938 C 100.488281 4.117188 100.28125 3.8125 99.878906 3.601562 C 99.582031 3.449219 99.316406 3.332031 99.285156 3.34375 C 99.253906 3.355469 99.089844 3.402344 98.914062 3.449219 M 99.960938 5.265625 C 100.265625 6.234375 100.265625 6.324219 99.953125 7.195312 C 99.773438 7.695312 99.441406 8.304688 99.214844 8.550781 C 98.523438 9.296875 98.128906 10.261719 96.648438 14.863281 C 94.632812 21.121094 93.597656 23.417969 91.574219 26.125 C 90.890625 27.039062 90.214844 27.988281 90.074219 28.234375 C 89.929688 28.484375 89.59375 28.878906 89.320312 29.117188 C 89.050781 29.351562 88.644531 29.941406 88.417969 30.417969 C 88.191406 30.898438 87.542969 31.75 86.972656 32.308594 C 86.402344 32.867188 85.042969 34.292969 83.949219 35.480469 C 82.859375 36.667969 81.777344 37.695312 81.550781 37.769531 C 81.324219 37.839844 80.734375 38.253906 80.242188 38.683594 C 79.140625 39.648438 76.757812 40.847656 74.3125 41.667969 C 73.300781 42.007812 72.285156 42.410156 72.050781 42.5625 C 71.585938 42.867188 71.5 43.570312 71.820312 44.414062 C 72.105469 45.160156 71.878906 45.5625 70.898438 46.058594 C 69.933594 46.546875 69.6875 47.027344 69.882812 48.058594 C 69.941406 48.382812 69.917969 48.984375 69.824219 49.394531 C 69.617188 50.3125 69.941406 51.746094 70.476562 52.28125 C 70.734375 52.539062 71.164062 52.675781 71.871094 52.726562 C 72.433594 52.765625 73.113281 52.882812 73.382812 52.984375 C 73.648438 53.085938 74.058594 53.167969 74.292969 53.167969 C 74.527344 53.167969 75.273438 53.460938 75.957031 53.816406 C 76.660156 54.183594 77.464844 54.460938 77.820312 54.460938 C 78.238281 54.460938 78.59375 54.613281 78.90625 54.921875 C 79.160156 55.175781 79.515625 55.386719 79.699219 55.386719 C 79.882812 55.386719 80.167969 55.628906 80.335938 55.925781 C 80.539062 56.285156 80.816406 56.484375 81.164062 56.523438 C 81.605469 56.574219 81.703125 56.6875 81.792969 57.246094 C 81.933594 58.121094 82.625 59.0625 83.335938 59.351562 C 83.648438 59.480469 84.363281 59.6875 84.921875 59.816406 C 85.480469 59.945312 86.101562 60.164062 86.300781 60.304688 C 86.503906 60.441406 86.851562 60.554688 87.074219 60.554688 C 87.3125 60.554688 87.527344 60.699219 87.59375 60.90625 C 87.882812 61.8125 90.082031 62.941406 91.570312 62.953125 C 92.253906 62.957031 92.90625 63.105469 93.570312 63.417969 C 94.113281 63.671875 94.828125 63.875 95.152344 63.875 C 95.480469 63.875 96.945312 63.496094 98.410156 63.027344 C 99.878906 62.5625 101.617188 62.136719 102.277344 62.082031 C 102.9375 62.027344 103.617188 61.910156 103.785156 61.824219 C 103.992188 61.714844 104.1875 61.753906 104.371094 61.9375 C 104.523438 62.089844 104.863281 62.296875 105.125 62.394531 C 105.386719 62.492188 105.597656 62.703125 105.597656 62.855469 C 105.597656 63.011719 105.578125 63.136719 105.554688 63.136719 C 104.816406 63.144531 101.980469 63.871094 100.152344 64.527344 C 95.332031 66.257812 95.097656 66.320312 93.691406 66.222656 C 92.71875 66.15625 91.890625 65.925781 90.328125 65.285156 C 89.191406 64.820312 87.917969 64.382812 87.5 64.316406 C 87.085938 64.25 86.445312 63.992188 86.078125 63.742188 C 85.710938 63.492188 84.65625 62.867188 83.734375 62.347656 C 82.816406 61.828125 81.664062 61.011719 81.179688 60.535156 C 80.691406 60.058594 80.070312 59.613281 79.792969 59.542969 C 79.515625 59.472656 78.679688 58.945312 77.929688 58.371094 C 75.285156 56.339844 74.867188 56.140625 73.96875 56.480469 C 73.101562 56.8125 72.980469 57.417969 73.457031 59.039062 C 73.90625 60.578125 74.511719 61.402344 75.300781 61.546875 C 75.566406 61.597656 76.105469 61.6875 76.496094 61.753906 C 77.0625 61.847656 77.539062 62.1875 78.867188 63.46875 C 79.78125 64.351562 80.644531 65.300781 80.789062 65.582031 C 80.9375 65.863281 81.15625 66.09375 81.28125 66.09375 C 81.40625 66.09375 81.816406 66.421875 82.199219 66.828125 C 82.578125 67.230469 83.097656 67.613281 83.351562 67.679688 C 84.007812 67.84375 84.621094 69.210938 84.644531 70.558594 C 84.671875 71.921875 84.921875 72.355469 86.289062 73.421875 C 88.1875 74.898438 89.570312 76.300781 89.917969 77.105469 C 90.335938 78.078125 90.699219 78.164062 93.324219 77.914062 C 95.246094 77.734375 95.351562 77.742188 95.742188 78.113281 C 96.078125 78.425781 96.320312 78.484375 97.046875 78.414062 C 98.023438 78.320312 99.824219 77.609375 101.152344 76.792969 C 102.289062 76.09375 105.246094 75.371094 105.828125 75.648438 C 106.230469 75.84375 106.234375 75.851562 105.859375 75.863281 C 105.617188 75.871094 105.164062 76.273438 104.636719 76.957031 C 103.972656 77.8125 103.550781 78.148438 102.621094 78.570312 C 101.972656 78.863281 100.828125 79.425781 100.074219 79.816406 C 97.742188 81.035156 96.40625 81.464844 95.351562 81.34375 C 93.917969 81.175781 88.746094 79.828125 87.910156 79.402344 C 87.5 79.191406 86.910156 78.707031 86.605469 78.324219 C 86.296875 77.945312 85.535156 77.007812 84.910156 76.246094 C 84.285156 75.484375 83.527344 74.363281 83.222656 73.753906 C 82.917969 73.144531 82.394531 72.355469 82.058594 72 C 81.722656 71.644531 80.972656 70.480469 80.398438 69.414062 C 79.820312 68.347656 79.230469 67.347656 79.089844 67.183594 C 78.945312 67.023438 78.832031 66.796875 78.832031 66.675781 C 78.832031 66.238281 78.089844 65.722656 77.460938 65.722656 C 76.578125 65.722656 75.988281 66.46875 76.15625 67.363281 C 76.21875 67.714844 76.429688 69.242188 76.617188 70.761719 C 76.9375 73.355469 76.992188 73.5625 77.53125 74.191406 C 78.484375 75.304688 79.398438 77.367188 79.582031 78.824219 C 79.671875 79.542969 79.820312 80.273438 79.914062 80.449219 C 80.117188 80.828125 80.515625 82.957031 81.035156 86.433594 C 81.308594 88.238281 81.414062 89.875 81.414062 92.179688 C 81.414062 95.464844 81.597656 96.964844 82.351562 99.863281 C 82.546875 100.621094 82.707031 101.660156 82.707031 102.171875 C 82.710938 103.167969 83.269531 105.777344 83.730469 106.957031 C 84.070312 107.816406 85.199219 109.335938 85.628906 109.511719 C 85.796875 109.578125 86.296875 109.640625 86.730469 109.648438 C 87.625 109.664062 88.347656 109.980469 88.890625 110.59375 L 89.261719 111.007812 L 88.773438 110.890625 C 88.082031 110.722656 87.277344 111.058594 86.933594 111.667969 C 86.769531 111.953125 86.253906 112.375 85.785156 112.597656 C 84.976562 112.992188 84.910156 112.996094 84.300781 112.707031 C 83.371094 112.265625 83.222656 112.042969 81.984375 109.210938 C 81.363281 107.792969 80.703125 106.464844 80.511719 106.253906 C 80.003906 105.695312 79.796875 104.808594 79.667969 102.644531 C 79.34375 97.15625 79.042969 94.316406 78.703125 93.546875 C 78.429688 92.917969 78.421875 92.6875 78.648438 91.328125 C 78.976562 89.355469 78.996094 83.269531 78.679688 82.203125 C 78.429688 81.351562 77.871094 81.039062 77.222656 81.386719 C 76.808594 81.609375 76.28125 83.574219 75.597656 87.460938 C 74.933594 91.210938 73.777344 94.496094 72.636719 95.855469 C 72.40625 96.132812 72.035156 96.902344 71.816406 97.566406 C 71.453125 98.660156 71.316406 98.839844 70.460938 99.394531 C 69.9375 99.730469 69.339844 100.195312 69.136719 100.425781 C 68.933594 100.65625 68.332031 101.125 67.800781 101.464844 C 67.269531 101.804688 66.574219 102.332031 66.261719 102.632812 C 65.820312 103.050781 65.566406 103.160156 65.191406 103.085938 C 64.921875 103.03125 64.203125 103.148438 63.597656 103.347656 C 60.699219 104.292969 60.394531 104.339844 57.597656 104.253906 C 54.796875 104.167969 54.769531 104.160156 51.109375 102.847656 C 48.871094 102.046875 45.949219 99.964844 45.292969 98.710938 C 45.144531 98.421875 44.777344 98.101562 44.480469 98 C 44.09375 97.863281 43.9375 97.6875 43.9375 97.390625 C 43.9375 97.15625 43.820312 96.867188 43.671875 96.75 C 43.277344 96.421875 42.375 94.136719 41.464844 91.160156 C 40.398438 87.691406 40.402344 87.695312 40.425781 85.660156 C 40.441406 84.589844 40.34375 83.566406 40.179688 83.03125 C 39.976562 82.367188 39.960938 81.996094 40.101562 81.527344 C 40.34375 80.746094 40.144531 79.34375 39.71875 78.816406 C 39.015625 77.949219 37.65625 78.59375 37.285156 79.964844 C 37.070312 80.761719 37.195312 84.148438 37.472656 85.105469 C 37.714844 85.9375 37.714844 88.351562 37.472656 88.804688 C 37.308594 89.113281 37.03125 96.027344 37.085938 98.492188 C 37.105469 99.398438 37.027344 99.582031 36.109375 100.878906 C 35.890625 101.1875 35.746094 101.734375 35.722656 102.308594 C 35.695312 103.09375 35.617188 103.289062 35.21875 103.53125 C 34.914062 103.714844 34.292969 104.679688 33.511719 106.1875 C 32.824219 107.511719 32.074219 108.699219 31.820312 108.878906 C 31.566406 109.054688 30.789062 109.675781 30.097656 110.261719 C 29.40625 110.84375 28.746094 111.324219 28.632812 111.324219 C 28.519531 111.324219 28.246094 111.53125 28.023438 111.785156 C 27.804688 112.042969 27.285156 112.335938 26.871094 112.445312 C 25.324219 112.84375 24.53125 113.242188 23.90625 113.933594 C 23.550781 114.324219 23.261719 114.832031 23.257812 115.0625 C 23.253906 115.605469 22.984375 116.015625 22.730469 115.859375 C 22.601562 115.78125 22.824219 115.175781 23.375 114.128906 C 24.324219 112.328125 25.242188 111.363281 28.097656 109.167969 C 29.085938 108.40625 29.945312 107.605469 30.011719 107.386719 C 30.265625 106.554688 31.449219 104.359375 32.429688 102.898438 C 33.035156 102.003906 33.472656 101.132812 33.511719 100.769531 C 33.546875 100.429688 33.707031 99.640625 33.871094 99.011719 C 34.035156 98.382812 34.152344 97.507812 34.128906 97.070312 C 34.101562 96.632812 34.273438 95.546875 34.5 94.65625 C 34.742188 93.726562 34.871094 92.816406 34.808594 92.523438 C 34.742188 92.226562 34.816406 91.722656 34.984375 91.316406 C 35.265625 90.652344 35.21875 89.90625 34.902344 89.90625 C 34.402344 89.90625 34.613281 85.667969 35.277344 82.351562 C 35.492188 81.292969 35.734375 79.839844 35.820312 79.121094 C 36.105469 76.726562 36.636719 75.222656 37.65625 73.925781 C 38.167969 73.277344 38.585938 72.664062 38.585938 72.566406 C 38.585938 72.464844 38.875 72.152344 39.234375 71.871094 C 39.964844 71.289062 40.128906 70.828125 40.507812 68.285156 C 40.832031 66.105469 40.710938 65.722656 39.710938 65.722656 C 38.675781 65.722656 38.335938 66.121094 38.453125 67.183594 C 38.535156 67.917969 38.480469 68.097656 38.015625 68.628906 C 37.726562 68.960938 37.355469 69.683594 37.195312 70.234375 C 37.035156 70.78125 36.660156 71.542969 36.359375 71.917969 C 36.058594 72.296875 35.8125 72.78125 35.804688 72.996094 C 35.796875 73.453125 35.625 73.789062 33.753906 77 L 32.335938 79.433594 L 30.707031 80.257812 C 29.808594 80.714844 28.078125 81.59375 26.859375 82.210938 L 24.644531 83.339844 L 23.078125 83.3125 C 20.585938 83.273438 15.757812 82.15625 14.792969 81.394531 C 14.253906 80.96875 13.515625 80.945312 12.960938 81.335938 C 12.730469 81.496094 12.390625 81.574219 12.191406 81.507812 C 11.992188 81.445312 11.414062 81.519531 10.902344 81.671875 C 9.902344 81.96875 9.785156 81.871094 10.265625 81.132812 C 10.609375 80.613281 10.929688 80.554688 11.261719 80.953125 C 11.582031 81.339844 12.371094 81.300781 13.515625 80.839844 C 14.773438 80.332031 16.117188 80.3125 19.871094 80.738281 L 22.847656 81.074219 L 23.949219 80.519531 C 24.554688 80.210938 25.734375 79.792969 26.570312 79.582031 C 28.71875 79.050781 29.011719 78.875 29.539062 77.800781 C 29.792969 77.289062 30.144531 76.667969 30.324219 76.421875 C 30.5 76.179688 30.644531 75.796875 30.644531 75.574219 C 30.644531 75.273438 30.789062 75.136719 31.203125 75.046875 C 32.019531 74.867188 33.285156 72.941406 33.289062 71.871094 C 33.289062 71.445312 33.1875 70.972656 33.0625 70.820312 C 32.875 70.59375 32.972656 70.347656 33.632812 69.402344 C 34.65625 67.945312 35.628906 66.40625 36.191406 65.355469 C 36.640625 64.523438 37.871094 62.890625 38.398438 62.4375 C 38.550781 62.304688 38.976562 62.050781 39.339844 61.878906 C 39.707031 61.703125 40.609375 60.960938 41.347656 60.226562 C 42.089844 59.492188 42.761719 58.890625 42.847656 58.890625 C 43.195312 58.890625 44.335938 57.085938 44.671875 56 C 45.105469 54.605469 44.964844 53.984375 44.175781 53.792969 C 43.890625 53.726562 43.433594 53.554688 43.152344 53.414062 C 42.691406 53.183594 42.648438 53.078125 42.6875 52.222656 C 42.738281 51.042969 42.488281 50.835938 40.9375 50.777344 C 39.089844 50.707031 38.875 50.679688 38.589844 50.5 C 38.4375 50.40625 37.867188 50.265625 37.320312 50.191406 C 36.636719 50.097656 36.171875 49.910156 35.839844 49.59375 C 35.570312 49.339844 34.9375 49.03125 34.429688 48.910156 C 33.921875 48.789062 32.96875 48.398438 32.308594 48.042969 C 31.648438 47.6875 30.484375 47.0625 29.722656 46.652344 C 28.960938 46.246094 27.992188 45.632812 27.566406 45.292969 C 27.140625 44.953125 26.292969 44.433594 25.675781 44.144531 C 25.058594 43.851562 24.242188 43.378906 23.863281 43.085938 C 22.722656 42.21875 20.332031 39.867188 20.058594 39.347656 C 17.582031 34.625 16.941406 33.253906 16.871094 32.53125 C 16.828125 32.082031 16.703125 31.550781 16.597656 31.351562 C 16.488281 31.148438 16.457031 30.929688 16.527344 30.859375 C 16.796875 30.597656 18.644531 33.117188 20.496094 36.277344 C 21.519531 38.023438 22.488281 39.136719 22.984375 39.136719 C 23.148438 39.136719 23.878906 39.703125 24.609375 40.390625 C 26.261719 41.945312 26.761719 42.289062 28.152344 42.824219 C 29.96875 43.515625 31.023438 44.113281 31.890625 44.925781 C 33.609375 46.542969 34.746094 47.054688 36.128906 46.828125 C 36.96875 46.695312 39.832031 47.785156 42.09375 49.105469 C 46.585938 51.726562 47.5 51.753906 47.425781 49.261719 C 47.402344 48.492188 47.472656 47.898438 47.601562 47.769531 C 47.898438 47.472656 47.867188 46.496094 47.546875 46.035156 C 47.398438 45.824219 46.859375 45.472656 46.347656 45.253906 C 45.3125 44.808594 45.214844 44.605469 45.28125 43.046875 C 45.328125 41.917969 45.097656 41.640625 43.9375 41.445312 C 43.550781 41.378906 43.089844 41.171875 42.917969 40.980469 C 42.746094 40.789062 41.96875 40.371094 41.195312 40.050781 C 36.738281 38.214844 36.46875 38.035156 35.804688 36.484375 C 35.582031 35.964844 35.121094 35.230469 34.785156 34.855469 C 34.105469 34.101562 33.589844 33.160156 33.230469 32.03125 C 33.101562 31.625 32.636719 30.585938 32.199219 29.722656 C 31.226562 27.8125 31.074219 26.878906 30.933594 21.96875 L 30.832031 18.371094 L 31.339844 17.355469 C 31.746094 16.539062 32.011719 16.257812 32.675781 15.933594 C 33.132812 15.710938 33.6875 15.523438 33.910156 15.519531 C 34.46875 15.503906 34.890625 15.023438 34.890625 14.40625 C 34.890625 13.984375 35.007812 13.84375 35.46875 13.683594 C 36.101562 13.460938 36.367188 13.542969 36.367188 13.953125 C 36.367188 14.101562 36.703125 14.585938 37.105469 15.023438 C 37.511719 15.464844 37.847656 16.003906 37.847656 16.21875 C 37.847656 16.667969 36.539062 17.585938 35.398438 17.9375 C 35.015625 18.054688 34.621094 18.253906 34.515625 18.375 C 34.414062 18.5 34.074219 19.835938 33.761719 21.34375 C 33.03125 24.859375 33.066406 26.117188 33.921875 27 C 34.5 27.601562 35.234375 29.308594 36.273438 32.492188 C 36.554688 33.355469 36.921875 34.214844 37.085938 34.402344 C 37.492188 34.871094 38.289062 35.261719 38.828125 35.261719 C 39.074219 35.261719 39.472656 35.417969 39.714844 35.605469 C 39.957031 35.792969 40.359375 36.011719 40.613281 36.089844 C 40.867188 36.167969 41.503906 36.617188 42.023438 37.085938 C 42.546875 37.554688 43.449219 38.230469 44.03125 38.585938 C 44.613281 38.941406 45.515625 39.679688 46.039062 40.230469 C 46.558594 40.78125 47.371094 41.617188 47.84375 42.085938 C 48.316406 42.554688 49.082031 43.570312 49.550781 44.339844 C 50.589844 46.050781 50.804688 46.238281 51.734375 46.238281 C 52.96875 46.238281 53.5 45.226562 52.890625 44.050781 C 52.679688 43.648438 52.660156 43.457031 52.820312 43.265625 C 52.945312 43.117188 52.992188 42.671875 52.9375 42.191406 C 52.875 41.628906 52.933594 41.242188 53.125 40.972656 C 53.304688 40.714844 53.453125 39.84375 53.546875 38.519531 C 53.625 37.386719 53.867188 35.464844 54.085938 34.246094 C 54.300781 33.027344 54.59375 31.382812 54.734375 30.589844 C 54.875 29.792969 55.09375 29.019531 55.21875 28.867188 C 56.042969 27.875 58.46875 27.4375 60.253906 27.953125 C 61.238281 28.242188 61.335938 28.324219 61.675781 29.109375 C 61.875 29.574219 62.285156 31.167969 62.589844 32.652344 C 62.953125 34.421875 63.246094 35.429688 63.441406 35.578125 C 63.664062 35.742188 63.714844 35.976562 63.632812 36.472656 C 63.515625 37.210938 64.285156 41.234375 64.625 41.640625 C 64.765625 41.8125 64.765625 42.1875 64.625 42.945312 C 64.226562 45.109375 64.472656 46.113281 65.480469 46.402344 C 66.597656 46.722656 66.953125 46.472656 67.789062 44.78125 C 68.457031 43.4375 68.652344 43.191406 69.25 42.957031 C 69.726562 42.769531 70.054688 42.46875 70.308594 41.972656 C 70.511719 41.582031 71.035156 40.921875 71.476562 40.503906 C 72.449219 39.585938 74.933594 37.660156 75.144531 37.660156 C 75.230469 37.660156 75.683594 37.328125 76.152344 36.925781 C 76.621094 36.519531 77.226562 36.140625 77.5 36.082031 C 78.816406 35.804688 80.4375 35.367188 80.761719 35.203125 C 81.273438 34.945312 81.691406 34.421875 82.464844 33.046875 C 83.296875 31.574219 85.855469 28.710938 86.753906 28.253906 C 87.777344 27.726562 88.136719 27.226562 89.265625 24.738281 C 90.121094 22.859375 90.5 22.25 91.304688 21.460938 C 92.003906 20.773438 92.351562 20.261719 92.496094 19.707031 C 92.992188 17.773438 93.765625 15.699219 95.308594 12.183594 C 96.222656 10.101562 97.289062 7.65625 97.683594 6.75 C 98.394531 5.117188 98.996094 4.246094 99.421875 4.246094 C 99.542969 4.246094 99.785156 4.703125 99.960938 5.265625 M 108.515625 76.652344 C 108.8125 76.945312 108.804688 77.554688 108.507812 77.433594 C 108.378906 77.378906 108.125 77.132812 107.945312 76.882812 C 107.625 76.445312 107.625 76.429688 107.953125 76.429688 C 108.140625 76.429688 108.394531 76.53125 108.515625 76.652344 "/><g clip-rule="nonzero" clip-path="url(#2e2a19b238)"><path style=" stroke:none;fill-rule:nonzero;fill:#d7bcd0;fill-opacity:1;" d="M 54.707031 37.765625 L 62.679688 37.765625 L 62.679688 41.699219 L 54.707031 41.699219 Z M 54.707031 37.765625 "/></g></g></svg>